
<svg width="526px" height="478px" viewBox="0 0 526 478" version="1.1" xmlns="http://www.w3.org/2000/svg" xmlns:xlink="http://www.w3.org/1999/xlink">
    <!-- Generator: Sketch 47 (45396) - http://www.bohemiancoding.com/sketch -->
    <desc>Created with Sketch.</desc>
    <defs>
        <polygon id="path-1" points="0 0 526 0 526 478 0 478"></polygon>
    </defs>
    <g id="Symbols" stroke="none" stroke-width="1" fill="none" fill-rule="evenodd">
        <g id="Pictos/OpenSpace">
            <g id="Group">
                <g id="Page-1">
                    <mask id="mask-2" fill="white">
                        <use xlink:href="#path-1"></use>
                    </mask>
                    <g id="Clip-2"></g>
                    <path d="M34.6828432,52.606973 C34.6828432,42.7213704 42.7254092,34.6795647 52.6119463,34.6795647 L473.388054,34.6795647 C483.272664,34.6795647 491.317157,42.7213704 491.317157,52.606973 L491.317157,298.034252 L34.6828432,298.034252 L34.6828432,52.606973 Z M34.6828432,332.71189 L491.31523,332.71189 L491.31523,337.418678 C491.31523,347.304281 483.272664,355.346086 473.388054,355.346086 L52.6119463,355.346086 C42.7254092,355.346086 34.6828432,347.304281 34.6828432,337.418678 L34.6828432,332.71189 Z M235.860675,443.318509 L243.388779,390.025651 L282.613148,390.025651 L290.139325,443.318509 L235.860675,443.318509 Z M473.388054,0 L52.6119463,0 C23.6016748,0 0,23.5994438 0,52.606973 L0,337.420605 C0,366.428134 23.6016748,390.027578 52.6119463,390.027578 L208.362961,390.027578 L200.83293,443.320435 L163.768532,443.320435 C154.205701,443.320435 146.42711,451.098291 146.42711,460.660218 C146.42711,470.222144 154.205701,478 163.768532,478 L215.898772,478 L310.103155,478 L362.233395,478 C371.796225,478 379.574816,470.222144 379.574816,460.660218 C379.574816,451.098291 371.796225,443.320435 362.233395,443.320435 L325.16707,443.320435 L317.638966,390.027578 L473.388054,390.027578 C502.398325,390.027578 526,366.428134 526,337.420605 L526,52.606973 C525.998073,23.5994438 502.396398,0 473.388054,0 L473.388054,0 Z" id="Fill-1" fill="#4D4D4D" mask="url(#mask-2)"></path>
                </g>
            </g>
        </g>
    </g>
</svg>