<svg width="459px" height="483px" viewBox="0 0 459 483" version="1.1" xmlns="http://www.w3.org/2000/svg" xmlns:xlink="http://www.w3.org/1999/xlink">
    <!-- Generator: Sketch 47 (45396) - http://www.bohemiancoding.com/sketch -->
    <desc>Created with Sketch.</desc>
    <defs>
        <polygon id="path-1" points="0 0.5 458.5998 0.5 458.5998 483 0 483"></polygon>
    </defs>
    <g id="Symbols" stroke="none" stroke-width="1" fill="none" fill-rule="evenodd">
        <g id="Pictos/Imprimante" transform="translate(0.000000, -1.000000)">
            <g id="Group">
                <g id="Page-1">
                    <g id="Group-3" transform="translate(0.000000, 0.500000)">
                        <mask id="mask-2" fill="white">
                            <use xlink:href="#path-1"></use>
                        </mask>
                        <g id="Clip-2"></g>
                        <path d="M431.5998,285.8 C431.5998,310.2 411.7008,330.1 387.2998,330.1 L374.8998,330.1 L374.8998,298.5 L392.7008,298.5 C400.2008,298.5 406.2008,292.5 406.2008,285 C406.2008,277.5 400.2008,271.5 392.7008,271.5 L62.6998,271.5 C55.1998,271.5 49.1998,277.5 49.1998,285 C49.1998,292.5 55.1998,298.5 62.6998,298.5 L82.5998,298.5 L82.5998,330.1 L71.2998,330.1 C46.8998,330.1 26.9998,310.2 26.9998,285.8 L26.9998,170.8 C26.9998,146.4 46.8998,126.5 71.2998,126.5 L387.2998,126.5 C411.7008,126.5 431.5998,146.4 431.5998,170.8 L431.5998,285.8 Z M347.7998,447.6 C347.7998,452.3 343.8998,456.2 339.2008,456.2 L118.0998,456.2 C113.3998,456.2 109.4998,452.3 109.4998,447.6 L109.4998,298.5 L347.7998,298.5 L347.7998,447.6 Z M109.4998,71.8 C109.4998,47.4 129.3998,27.5 153.7998,27.5 L303.3998,27.5 C327.7998,27.5 347.7008,47.4 347.7008,71.8 L347.7008,99.4 L109.4998,99.4 L109.4998,71.8 Z M387.2998,99.4 L374.8998,99.4 L374.8998,71.8 C374.8998,32.5 342.8998,0.5 303.5998,0.5 L153.8998,0.5 C114.5998,0.5 82.5998,32.5 82.5998,71.8 L82.5998,99.4 L71.2998,99.4 C31.9998,99.4 -0.0002,131.4 -0.0002,170.7 L-0.0002,285.7 C-0.0002,325 31.9998,357 71.2998,357 L82.4998,357 L82.4998,447.4 C82.4998,467 98.4998,483 118.0998,483 L339.2008,483 C358.7998,483 374.7998,467 374.7998,447.4 L374.7998,357 L387.2998,357 C426.5998,357 458.5998,325 458.5998,285.7 L458.5998,170.7 C458.5998,131.4 426.5998,99.4 387.2998,99.4 L387.2998,99.4 Z" id="Fill-1" fill="#4D4D4D" mask="url(#mask-2)"></path>
                    </g>
                    <path d="M142.1999,365.3996 L314.0999,365.3996 C321.5999,365.3996 327.5999,359.3996 327.5999,351.8996 C327.5999,344.3996 321.5999,338.3996 314.0999,338.3996 L142.1999,338.3996 C134.6999,338.3996 128.6999,344.3996 128.6999,351.8996 C128.6999,359.3996 134.7999,365.3996 142.1999,365.3996" id="Fill-4" fill="#4D4D4D"></path>
                    <path d="M315.2004,393.5998 L143.2004,393.5998 C135.7004,393.5998 129.7004,399.5998 129.7004,407.0998 C129.7004,414.5998 135.7004,420.5998 143.2004,420.5998 L315.0994,420.5998 C322.5994,420.5998 328.5994,414.5998 328.5994,407.0998 C328.5994,399.5998 322.5994,393.5998 315.2004,393.5998" id="Fill-6" fill="#4D4D4D"></path>
                    <path d="M387.0002,152.9001 L359.6002,152.9001 C352.1002,152.9001 346.1002,158.9001 346.1002,166.4001 C346.1002,173.9001 352.1002,179.9001 359.6002,179.9001 L387.0002,179.9001 C394.5002,179.9001 400.5002,173.9001 400.5002,166.4001 C400.5002,158.9001 394.5002,152.9001 387.0002,152.9001" id="Fill-8" fill="#CBD301"></path>
                </g>
            </g>
        </g>
    </g>
</svg>