<svg width="533px" height="512px" viewBox="0 0 533 512" version="1.1" xmlns="http://www.w3.org/2000/svg" xmlns:xlink="http://www.w3.org/1999/xlink">
    <!-- Generator: Sketch 47 (45396) - http://www.bohemiancoding.com/sketch -->
    <desc>Created with Sketch.</desc>
    <defs></defs>
    <g id="Symbols" stroke="none" stroke-width="1" fill="none" fill-rule="evenodd">
        <g id="Pictos/Salle_réu" transform="translate(0.000000, -1.000000)" fill="#4D4D4D">
            <g id="Group-13" transform="translate(0.000000, 0.001000)">
                <path d="M493.7139,423.4002 C493.7139,436.2002 482.7429,445.3422 469.9429,445.3422 L385.8289,445.3422 C393.1429,432.5432 396.7999,417.9142 400.4579,403.2862 L455.3159,403.2862 C466.2859,403.2862 473.6009,395.9722 473.6009,385.0002 C473.6009,374.0282 466.2869,366.7132 455.3159,366.7132 L400.4579,366.7132 C398.6289,350.2562 393.1439,335.6282 385.8289,322.8282 C387.6579,322.8282 389.4859,324.6572 391.3149,324.6572 L455.3149,324.6572 C466.2849,324.6572 473.5999,317.3422 473.5999,306.3712 C473.5999,295.3992 466.2859,288.0852 455.3149,288.0852 L391.3149,288.0852 C382.1709,288.0852 373.0279,295.3992 373.0279,306.3712 C349.2569,277.1142 312.6859,256.9992 272.4559,256.9992 C232.2259,256.9992 195.6559,275.2852 171.8839,306.3712 C171.8839,297.2282 162.7409,289.9142 153.5979,289.9142 L106.0549,289.9142 C95.0839,289.9142 87.7689,297.2282 87.7689,308.2002 C87.7689,319.1712 95.0829,326.4862 106.0549,326.4862 L153.5979,326.4862 C155.4269,326.4862 157.2549,326.4862 159.0839,324.6572 C151.7699,337.4572 146.2849,352.0862 144.4549,368.5432 L106.0549,368.5432 C95.0839,368.5432 87.7689,375.8572 87.7689,386.8292 C87.7689,397.8002 95.0829,405.1152 106.0549,405.1152 L144.4549,405.1152 C146.2839,419.7442 151.7689,434.3722 159.0839,447.1712 L67.6569,447.1712 C53.0279,447.1712 36.5709,436.2012 36.5709,425.2292 L36.5709,163.7422 L382.1699,163.7422 C393.1409,163.7422 400.4559,156.4282 400.4559,145.4562 C400.4559,134.4842 393.1419,127.1702 382.1699,127.1702 L36.5709,127.1702 L36.5709,92.4282 C36.5709,81.4572 53.0289,68.6562 67.6559,68.6562 L111.5419,68.6562 L111.5419,81.4562 C111.5419,92.4272 118.8559,99.7422 129.8279,99.7422 C140.7989,99.7422 148.1139,92.4282 148.1139,81.4562 L148.1139,68.6562 L206.6279,68.6562 L206.6279,81.4562 C206.6279,92.4272 213.9419,99.7422 224.9139,99.7422 C235.8859,99.7422 243.1999,92.4282 243.1999,81.4562 L243.1999,68.6562 L301.7139,68.6562 L301.7139,81.4562 C301.7139,92.4272 309.0279,99.7422 319.9999,99.7422 C330.9719,99.7422 338.2859,92.4282 338.2859,81.4562 L338.2859,68.6562 L396.7999,68.6562 L396.7999,81.4562 C396.7999,92.4272 404.1139,99.7422 415.0859,99.7422 C426.0579,99.7422 433.3719,92.4282 433.3719,81.4562 L433.3719,68.6562 L469.9429,68.6562 C482.7429,68.6562 493.7139,79.6272 493.7139,92.4282 L493.7139,127.1702 L446.1719,127.1702 C435.2009,127.1702 427.8859,134.4842 427.8859,145.4562 C427.8859,156.4282 435.1999,163.7422 446.1719,163.7422 L493.7149,163.7422 L493.7149,423.4002 L493.7139,423.4002 Z M272.4579,476.4272 C221.2579,476.4272 181.0279,434.3712 181.0279,383.1702 C181.0279,331.9692 223.0859,289.9122 274.2859,289.9122 C325.4859,289.9122 367.5439,331.9682 367.5439,383.1702 C367.5439,434.3712 323.6579,476.4272 272.4579,476.4272 L272.4579,476.4272 Z M469.9429,32.0862 L433.3719,32.0862 L433.3719,19.2862 C433.3719,8.3152 426.0579,1.0002 415.0859,1.0002 C404.1139,1.0002 396.7999,8.3142 396.7999,19.2852 L396.7999,32.0852 L338.2859,32.0852 L338.2859,19.2852 C338.2859,8.3142 330.9719,0.9992 319.9999,0.9992 C309.0279,0.9992 301.7139,8.3132 301.7139,19.2852 L301.7139,32.0852 L243.1999,32.0852 L243.1999,19.2852 C243.1999,8.3142 235.8859,0.9992 224.9139,0.9992 C213.9429,0.9992 206.6279,8.3132 206.6279,19.2852 L206.6279,32.0852 L148.1139,32.0852 L148.1139,19.2852 C148.1139,8.3142 140.7999,0.9992 129.8279,0.9992 C118.8559,0.9992 111.5419,8.3132 111.5419,19.2852 L111.5419,32.0852 L67.6579,32.0852 C34.7429,32.0862 -0.0001,57.6852 -0.0001,92.4282 L-0.0001,423.4002 C-0.0001,458.1422 34.7429,481.9142 67.6569,481.9142 L190.1719,481.9142 C212.1149,502.0292 241.3719,513.0002 274.2859,513.0002 C307.1999,513.0002 336.4569,500.1992 358.4009,481.9142 L471.7719,481.9142 C504.6849,481.9142 532.1129,456.3142 532.1129,423.4002 L532.1129,92.4282 C530.2859,59.5142 502.8589,32.0862 469.9429,32.0862 L469.9429,32.0862 Z" id="Fill-11"></path>
            </g>
        </g>
    </g>
</svg>