
<svg width="430px" height="350px" viewBox="0 0 430 350" version="1.1" xmlns="http://www.w3.org/2000/svg" xmlns:xlink="http://www.w3.org/1999/xlink">
    <!-- Generator: Sketch 50.2 (55047) - http://www.bohemiancoding.com/sketch -->
    <desc>Created with Sketch.</desc>
    <defs>
        <polygon id="path-1" points="0 0.036 204.2603 0.036 204.2603 117 0 117"></polygon>
        <polygon id="path-3" points="0.9392 0.0354 205.199825 0.0354 205.199825 117 0.9392 117"></polygon>
    </defs>
    <g id="Symbols" stroke="none" stroke-width="1" fill="none" fill-rule="evenodd">
        <g id="Pictos/200m2">
            <g id="Group">
                <g id="Page-1" transform="translate(65.000000, 69.000000)" fill="#525252">
                    <path d="M279.7317,203.453 L261.9837,218.776 L160.5447,255.727 L160.5447,122.237 L279.7337,74.133 L279.7317,203.453 Z M139.8657,99.939 L38.3867,58.979 L139.8657,22.01 L160.5447,22.01 L262.0247,58.979 L160.5447,99.939 L139.8657,99.939 Z M20.6777,203.453 L20.6777,74.132 L139.8657,122.236 L139.8657,155.346 L139.8657,177.644 L139.8657,255.727 L38.4267,218.776 L20.6777,203.453 Z M293.6117,48.476 L160.5447,0 L139.8667,0 L6.8007,48.477 C2.7157,49.965 0.0007,53.847 0.0007,58.193 L0.0007,212.297 L10.1457,230.474 L146.6697,280.209 C146.6697,280.209 148.6137,280.834 150.2197,280.834 C151.8257,280.834 153.7417,280.209 153.7417,280.209 L290.2647,230.474 L300.4137,212.297 L300.4137,58.192 C300.4137,53.846 297.6977,49.964 293.6117,48.476 Z" id="Fill-1"></path>
                </g>
                <g id="Group-3" transform="translate(0.000000, 224.473000)">
                    <mask id="mask-2" fill="white">
                        <use xlink:href="#path-1"></use>
                    </mask>
                    <g id="Clip-2"></g>
                    <path d="M85.0723,48.143 L64.3943,56.987 L29.4513,71.447 L36.0043,55.64 C38.1923,50.363 35.6883,44.314 30.4153,42.127 C25.1343,39.939 19.0893,42.444 16.9023,47.719 L0.7893,86.585 C-0.2627,89.118 -0.2627,91.967 0.7863,94.501 C1.8363,97.034 3.8483,99.048 6.3823,100.097 L45.2513,116.209 C46.5453,116.746 47.8863,117 49.2053,117 C53.2603,117 57.1113,114.599 58.7603,110.615 C60.9473,105.343 58.4453,99.293 53.1683,97.105 L37.3603,90.552 L74.5403,75.164 L102.8213,63.466 L161.7273,39.58 L204.2603,22.334 L204.2603,0.036 L154.5373,20.106 L85.0723,48.143 Z" id="Fill-1" fill="#CBD301" mask="url(#mask-2)"></path>
                </g>
                <path d="M224.9395,35.3001 L237.0405,47.4021 C239.0595,49.4211 241.7055,50.4301 244.3535,50.4301 C246.9975,50.4301 249.6445,49.4201 251.6645,47.4021 C255.7025,43.3631 255.7025,36.8181 251.6645,32.7811 L221.9115,3.0291 C217.8725,-1.0079 211.3295,-1.0099 207.2905,3.0291 L177.5365,32.7811 C173.4995,36.8181 173.4995,43.3631 177.5365,47.4021 C181.5735,51.4381 188.1215,51.4401 192.1615,47.4021 L204.2615,35.3001 L204.2605,169.1021 L204.8835,169.4281 C211.1905,172.7311 218.7425,172.6081 224.9395,169.1021 L224.9395,35.3001 Z" id="Fill-4" fill="#CBD301"></path>
                <g id="Group-8" transform="translate(224.000000, 224.473000)">
                    <mask id="mask-4" fill="white">
                        <use xlink:href="#path-3"></use>
                    </mask>
                    <g id="Clip-7"></g>
                    <path d="M204.4122,86.5854 L188.2992,47.7194 C186.1112,42.4454 180.0642,39.9414 174.7852,42.1274 C169.5152,44.3144 167.0112,50.3604 169.1972,55.6404 L175.7502,71.4464 L0.9392,0.0354 L0.9392,22.3344 L167.8392,90.5524 L152.0302,97.1054 C146.7552,99.2934 144.2532,105.3414 146.4382,110.6144 C148.0882,114.5984 151.9382,117.0004 155.9932,117.0004 C157.3142,117.0004 158.6532,116.7464 159.9482,116.2094 L198.8172,100.0974 C201.3502,99.0484 203.3622,97.0344 204.4132,94.5014 C205.4622,91.9664 205.4622,89.1174 204.4122,86.5854" id="Fill-6" fill="#CBD301" mask="url(#mask-4)"></path>
                </g>
            </g>
        </g>
    </g>
</svg>