<?xml version="1.0" encoding="utf-8"?>
<!-- Generator: Adobe Illustrator 16.0.0, SVG Export Plug-In . SVG Version: 6.00 Build 0)  -->
<!DOCTYPE svg PUBLIC "-//W3C//DTD SVG 1.1//EN" "http://www.w3.org/Graphics/SVG/1.1/DTD/svg11.dtd">
<svg version="1.1" id="Layer_1" xmlns="http://www.w3.org/2000/svg" xmlns:xlink="http://www.w3.org/1999/xlink" x="0px" y="0px"
	 width="64px" height="64px" viewBox="0 0 64 64" enable-background="new 0 0 64 64" xml:space="preserve">
<path d="M64,12.151c-2.355,1.044-4.885,1.75-7.541,2.067c2.711-1.625,4.793-4.198,5.773-7.264c-2.537,1.505-5.348,2.597-8.338,3.186
	c-2.396-2.552-5.809-4.146-9.584-4.146c-7.252,0-13.13,5.879-13.13,13.13c0,1.029,0.116,2.031,0.34,2.992
	C20.608,21.568,10.932,16.341,4.456,8.397c-1.13,1.939-1.778,4.195-1.778,6.601c0,4.556,2.318,8.575,5.841,10.929
	c-2.152-0.068-4.177-0.659-5.947-1.642c-0.001,0.055-0.001,0.11-0.001,0.165c0,6.362,4.526,11.668,10.533,12.875
	c-1.102,0.3-2.262,0.461-3.459,0.461c-0.846,0-1.669-0.083-2.47-0.236c1.671,5.216,6.52,9.013,12.266,9.118
	c-4.494,3.521-10.155,5.621-16.307,5.621c-1.06,0-2.105-0.062-3.132-0.184c5.811,3.726,12.713,5.899,20.128,5.899
	c24.151,0,37.358-20.008,37.358-37.359c0-0.569-0.014-1.136-0.038-1.699c2.565-1.851,4.792-4.164,6.552-6.797L64,12.151z"/>
</svg>
