
<svg width="512px" height="512px" viewBox="0 0 512 512" version="1.1" xmlns="http://www.w3.org/2000/svg" xmlns:xlink="http://www.w3.org/1999/xlink">
    <!-- Generator: Sketch 47 (45396) - http://www.bohemiancoding.com/sketch -->
    <desc>Created with Sketch.</desc>
    <defs>
        <polygon id="path-1" points="0.0002 0.0001 448.0002 0.0001 448.0002 448 0.0002 448"></polygon>
        <path d="M0,224 C0,347.488 100.512,448 224,448 L224,448 C347.488,448 448,347.488 448,224 L448,224 C448,188.64 439.392,153.345 423.2,121.953 L423.2,121.953 C419.135,114.048 409.376,111.04 401.632,115.072 L401.632,115.072 C393.792,119.136 390.688,128.801 394.752,136.641 L394.752,136.641 C408.672,163.488 416,193.727 416,224 L416,224 C416,329.888 329.887,416 224,416 L224,416 C118.112,416 32,329.888 32,224 L32,224 C32,118.112 118.112,32 224,32 L224,32 C254.272,32 284.512,39.328 311.36,53.248 L311.36,53.248 C319.135,57.312 328.865,54.24 332.928,46.368 L332.928,46.368 C336.992,38.528 333.887,28.865 326.047,24.8 L326.047,24.8 C294.656,8.607 259.36,0 224,0 L224,0 C100.512,0 0,100.512 0,224 L0,224 Z" id="path-3"></path>
        <path d="M0,64 C0,99.296 28.704,128 64,128 L64,128 C99.296,128 128,99.296 128,64 L128,64 C128,52.16 124.544,41.215 118.912,31.712 L118.912,31.712 L96.288,9.088 C86.785,3.456 75.84,0 64,0 L64,0 C28.704,0 0,28.704 0,64 M32,64 C32,46.336 46.336,32 64,32 L64,32 C66.752,32 69.248,32.928 71.808,33.568 L71.808,33.568 L94.432,56.224 C95.073,58.752 96,61.248 96,64 L96,64 C96,81.664 81.664,96 64,96 L64,96 C46.336,96 32,81.664 32,64" id="path-5"></path>
        <polygon id="path-7" points="0.992 0 305.014 0 305.014 303.9999 0.992 303.9999"></polygon>
    </defs>
    <g id="Symbols" stroke="none" stroke-width="1" fill="none" fill-rule="evenodd">
        <g id="Pictos/Flechettes" transform="translate(2.000000, 0.000000)">
            <g id="Group" transform="translate(-2.000000, 0.000000)">
                <g id="Page-1">
                    <g id="Group-6" transform="translate(0.000000, 64.000000)">
                        <path d="M343.3604,175.2636 C334.8164,177.5676 329.7924,186.3996 332.0954,194.8796 C334.6884,204.4476 336.0004,214.2076 336.0004,223.9996 C336.0004,285.7596 285.7594,335.9996 224.0004,335.9996 C162.2404,335.9996 111.9994,285.7596 111.9994,223.9996 C111.9994,162.2396 162.2404,111.9996 224.0004,111.9996 C233.7924,111.9996 243.5514,113.3116 253.0884,115.9036 C261.7274,118.2396 270.4004,113.1836 272.7054,104.6396 C275.0074,96.1276 269.9844,87.3276 261.4404,85.0236 C249.2154,81.6956 236.6074,79.9996 224.0004,79.9996 C144.6074,79.9996 79.9994,144.6076 79.9994,223.9996 C79.9994,303.3916 144.6074,367.9996 224.0004,367.9996 C303.3914,367.9996 368.0004,303.3916 368.0004,223.9996 C368.0004,211.3916 366.3034,198.7836 362.9754,186.5276 C360.6724,177.9836 352.0324,172.9596 343.3604,175.2636" id="Fill-1" fill="#4D4D4D"></path>
                        <g id="Group-5">
                            <mask id="mask-2" fill="white">
                                <use xlink:href="#path-1"></use>
                            </mask>
                            <g id="Clip-4"></g>
                            <path d="M423.2002,121.9521 C419.1362,114.0481 409.3762,111.0401 401.6322,115.0721 C393.7922,119.1361 390.6882,128.8001 394.7522,136.6401 C408.6722,163.4881 416.0002,193.7271 416.0002,224.0001 C416.0002,329.8881 329.8872,416.0001 224.0002,416.0001 C118.1122,416.0001 32.0002,329.8881 32.0002,224.0001 C32.0002,118.1121 118.1122,32.0001 224.0002,32.0001 C254.2722,32.0001 284.5122,39.3281 311.3602,53.2481 C319.1362,57.3121 328.8642,54.2401 332.9282,46.3681 C336.9922,38.5281 333.8872,28.8641 326.0482,24.8001 C294.6562,8.6081 259.3602,0.0001 224.0002,0.0001 C100.5122,0.0001 0.0002,100.5121 0.0002,224.0001 C0.0002,347.4881 100.5122,448.0001 224.0002,448.0001 C347.4882,448.0001 448.0002,347.4881 448.0002,224.0001 C448.0002,188.6401 439.3912,153.3441 423.2002,121.9521" id="Fill-3" fill="#4D4D4D" mask="url(#mask-2)"></path>
                        </g>
                    </g>
                    <g id="Group-9" transform="translate(0.000000, 64.000000)">
                        <mask id="mask-4" fill="white">
                            <use xlink:href="#path-3"></use>
                        </mask>
                        <g id="Clip-8"></g>
                        <polygon id="Fill-7" fill="#4D4D4D" mask="url(#mask-4)" points="0 448 449 448 449 0 0 0"></polygon>
                    </g>
                    <path d="M254.4316,280.224 C255.0726,282.752 255.9996,285.248 255.9996,288 C255.9996,305.664 241.6636,320 223.9996,320 C206.3356,320 191.9996,305.664 191.9996,288 C191.9996,270.336 206.3356,256 223.9996,256 C226.7516,256 229.2476,256.928 231.8076,257.568 M256.2876,233.088 C246.7846,227.456 235.8396,224 223.9996,224 C188.7036,224 159.9996,252.704 159.9996,288 C159.9996,323.296 188.7036,352 223.9996,352 C259.2956,352 287.9996,323.296 287.9996,288 C287.9996,276.16 284.5436,265.216 278.9116,255.712" id="Fill-10" fill="#4D4D4D"></path>
                    <g id="Group-14" transform="translate(160.000000, 224.000000)">
                        <mask id="mask-6" fill="white">
                            <use xlink:href="#path-5"></use>
                        </mask>
                        <g id="Clip-13"></g>
                        <polyline id="Fill-12" fill="#EF8A4A" mask="url(#mask-6)" points="0 -224.0001 0 127.9999 352 127.9999"></polyline>
                    </g>
                    <g id="Group-17" transform="translate(207.000000, 0.000000)">
                        <mask id="mask-8" fill="white">
                            <use xlink:href="#path-7"></use>
                        </mask>
                        <g id="Clip-16"></g>
                        <path d="M234.376,95.9999 L209,95.9999 L209,70.6239 L225,54.6239 L225,63.9999 C225,72.8319 232.168,79.9999 241,79.9999 L250.376,79.9999 L234.376,95.9999 Z M303.784,57.8879 C301.288,51.9039 295.464,47.9999 289,47.9999 L257,47.9999 L257,15.9999 C257,9.5359 253.096,3.6799 247.112,1.2159 C241.16,-1.2481 234.28,0.0959 229.672,4.6719 L181.672,52.6719 C178.696,55.6799 177,59.7439 177,63.9999 L177,105.3759 L5.672,276.6719 C-0.568,282.9119 -0.568,293.0559 5.672,299.2959 C8.808,302.4319 12.904,303.9999 17,303.9999 C21.096,303.9999 25.192,302.4319 28.328,299.3279 L199.624,127.9999 L241,127.9999 C245.256,127.9999 249.32,126.3039 252.328,123.3279 L300.328,75.3279 C304.904,70.7519 306.28,63.8719 303.784,57.8879 L303.784,57.8879 Z" id="Fill-15" fill="#4D4D4D" mask="url(#mask-8)"></path>
                    </g>
                </g>
            </g>
        </g>
    </g>
</svg>