<?xml version="1.0" encoding="utf-8"?>
<!-- Generator: Adobe Illustrator 16.0.0, SVG Export Plug-In . SVG Version: 6.00 Build 0)  -->
<!DOCTYPE svg PUBLIC "-//W3C//DTD SVG 1.0//EN" "http://www.w3.org/TR/2001/REC-SVG-20010904/DTD/svg10.dtd">
<svg version="1.0" id="Layer_1" xmlns="http://www.w3.org/2000/svg" xmlns:xlink="http://www.w3.org/1999/xlink" x="0px" y="0px"
	 width="458.6px" height="482.5px" viewBox="0 0 458.6 482.5" enable-background="new 0 0 458.6 482.5" xml:space="preserve">
<g id="Symbols">
	<g id="Pictos_x2F_Imprimante" transform="translate(0.000000, -1.000000)">
		<g id="Group">
			<g id="Page-1">
				<g id="Group-3" transform="translate(0.000000, 0.500000)">
					<g id="Clip-2">
					</g>
					<defs>
						<filter id="Adobe_OpacityMaskFilter" filterUnits="userSpaceOnUse" x="0" y="0.5" width="458.6" height="482.5">
							<feColorMatrix  type="matrix" values="1 0 0 0 0  0 1 0 0 0  0 0 1 0 0  0 0 0 1 0"/>
						</filter>
					</defs>
					<mask maskUnits="userSpaceOnUse" x="0" y="0.5" width="458.6" height="482.5" id="mask-2_2_">
						<g filter="url(#Adobe_OpacityMaskFilter)">
							<polygon id="path-1_2_" fill="#FFFFFF" points="0,0.5 458.6,0.5 458.6,483 0,483 							"/>
						</g>
					</mask>
					<path id="Fill-1" mask="url(#mask-2_2_)" fill="#4E4E4E" d="M431.6,285.8c0,24.4-19.898,44.3-44.3,44.3h-12.4v-31.6h17.802
						c7.5,0,13.5-6,13.5-13.5s-6-13.5-13.5-13.5H62.7c-7.5,0-13.5,6-13.5,13.5s6,13.5,13.5,13.5h19.9v31.6H71.3
						C46.9,330.1,27,310.2,27,285.8v-115c0-24.4,19.9-44.3,44.3-44.3h316c24.401,0,44.3,19.9,44.3,44.3V285.8z M347.8,447.6
						c0,4.7-3.9,8.601-8.599,8.601H118.1c-4.7,0-8.6-3.9-8.6-8.601V298.5h238.3V447.6z M109.5,71.8c0-24.4,19.9-44.3,44.3-44.3
						H303.4c24.399,0,44.301,19.9,44.301,44.3v27.6H109.5V71.8z M387.3,99.4h-12.4V71.8c0-39.3-32-71.3-71.3-71.3H153.9
						c-39.3,0-71.3,32-71.3,71.3v27.6H71.3C32,99.4,0,131.4,0,170.7v115C0,325,32,357,71.3,357h11.2v90.4c0,19.6,16,35.6,35.6,35.6
						h221.102c19.599,0,35.599-16,35.599-35.6V357h12.5c39.3,0,71.3-32,71.3-71.3v-115C458.6,131.4,426.6,99.4,387.3,99.4
						L387.3,99.4z"/>
				</g>
				<path id="Fill-4" fill="#4E4E4E" d="M142.2,365.399h171.9c7.5,0,13.5-6,13.5-13.5s-6-13.5-13.5-13.5H142.2
					c-7.5,0-13.5,6-13.5,13.5S134.8,365.399,142.2,365.399"/>
				<path id="Fill-6" fill="#4E4E4E" d="M315.2,393.6h-172c-7.5,0-13.5,6-13.5,13.5s6,13.5,13.5,13.5H315.1c7.5,0,13.5-6,13.5-13.5
					S322.6,393.6,315.2,393.6"/>
				<path id="Fill-8" fill="#C9D22C" d="M387,152.9h-27.399c-7.5,0-13.5,6-13.5,13.5s6,13.5,13.5,13.5H387c7.5,0,13.5-6,13.5-13.5
					S394.5,152.9,387,152.9"/>
			</g>
		</g>
	</g>
</g>
</svg>
