<?xml version="1.0" encoding="utf-8"?>
<!-- Generator: Adobe Illustrator 16.0.0, SVG Export Plug-In . SVG Version: 6.00 Build 0)  -->
<!DOCTYPE svg PUBLIC "-//W3C//DTD SVG 1.1//EN" "http://www.w3.org/Graphics/SVG/1.1/DTD/svg11.dtd">
<svg version="1.1" id="Layer_1" xmlns="http://www.w3.org/2000/svg" xmlns:xlink="http://www.w3.org/1999/xlink" x="0px" y="0px"
	 width="100%" height="100%" viewBox="0 0 511.996 512" enable-background="new 0 0 511.996 512" xml:space="preserve">
<g id="Symbols">
	<g id="Pictos_x2F_Tel">
		<g id="Page-1">
			<g id="Group-3" transform="translate(0.000000, 10.000000)">
				<g id="Clip-2">
				</g>
				<defs>
					<filter id="Adobe_OpacityMaskFilter" filterUnits="userSpaceOnUse" x="-0.3" y="0.197" width="501.535" height="501.553">
						<feColorMatrix  type="matrix" values="1 0 0 0 0  0 1 0 0 0  0 0 1 0 0  0 0 0 1 0"/>
					</filter>
				</defs>
				<mask maskUnits="userSpaceOnUse" x="-0.3" y="0.197" width="501.535" height="501.553" id="mask-2_1_">
					<g filter="url(#Adobe_OpacityMaskFilter)">
						<polygon id="path-1_1_" fill="#FFFFFF" points="-0.3,0.197 501.235,0.197 501.235,501.75 -0.3,501.75 						"/>
					</g>
				</mask>
				<path id="Fill-1" mask="url(#mask-2_1_)" fill="#4E4E4E" d="M444.45,438.118L344.126,337.795l26.088-26.089l100.324,100.321
					C470.538,412.027,444.459,438.127,444.45,438.118L444.45,438.118z M408.728,451.373l-0.006,0.005
					c-22.094,22.092-61.146,25.74-109.961,10.27c-52.251-16.558-108.064-52.714-157.156-101.806
					C92.512,310.75,56.356,254.938,39.799,202.687c-15.47-48.818-11.821-87.87,10.275-109.967l0.002-0.002l2.77-2.77l77.857,77.856
					l-7.141,7.141c-0.005,0.005-0.009,0.011-0.015,0.017c-29.585,29.622,5.963,96.146,56.378,146.561
					c37.734,37.735,84.493,67.141,118.05,67.141c11.285,0,21.076-3.325,28.528-10.778c0.003-0.002,0.005-0.004,0.008-0.008
					l7.134-7.133l77.856,77.855L408.728,451.373z M89.418,30.907l100.324,100.325l-26.074,26.102l-0.014-0.014l-0.375-0.375
					l-49.787-49.787L63.329,56.996L89.418,30.907z M492.255,390.31L391.932,289.988c-11.976-11.975-31.458-11.975-43.435,0
					l-26.088,26.088c-8.174,8.174-10.758,19.846-7.773,30.24l-9.843,9.844l-0.008,0.008c-6.99,6.998-50.522-3.74-103.145-56.363
					c-52.614-52.613-63.356-96.138-56.366-103.143c0-0.002,0.002-0.002,0.002-0.002l9.852-9.851c2.781,0.8,5.651,1.207,8.523,1.207
					c7.865,0,15.729-2.992,21.718-8.98l26.088-26.087c11.975-11.976,11.975-31.458,0-43.435L111.134,9.191
					c-5.8-5.801-13.513-8.994-21.716-8.994c-8.205,0-15.915,3.195-21.716,8.994l-26.09,26.09
					c-8.174,8.173-10.758,19.846-7.773,30.241c0,0-8.344,8.424-8.759,8.956c-27.753,30.848-32.96,79.418-14.561,137.487
					c18.017,56.857,56.857,117.087,109.367,169.593c52.508,52.509,112.739,91.35,169.595,109.369
					c22.841,7.236,44.208,10.822,63.61,10.822c31.813,0,58.337-9.648,77.351-28.66l5.474-5.474c2.74,0.788,5.603,1.213,8.532,1.213
					c8.205,0,15.917-3.196,21.716-8.994l26.09-26.09C504.229,421.77,504.229,402.286,492.255,390.31L492.255,390.31z"/>
			</g>
			<path id="Fill-4" fill="#85CBD5" d="M279.171,77.641c-8.479,0-15.354,6.875-15.354,15.356s6.876,15.356,15.354,15.356
				c33.102-0.002,64.221,12.89,87.629,36.297c23.405,23.406,36.295,54.525,36.295,87.624c0,8.481,6.875,15.358,15.355,15.358
				s15.356-6.875,15.356-15.354c0.001-41.304-16.085-80.135-45.29-109.344C359.308,93.725,320.475,77.64,279.171,77.641z"/>
			<path id="Fill-6" fill="#85CBD5" d="M279.165-0.25c-8.479,0-15.354,6.876-15.354,15.356c0,8.481,6.876,15.356,15.354,15.356
				c53.907-0.002,104.589,20.992,142.71,59.111c38.118,38.118,59.111,88.799,59.11,142.706c0,8.481,6.875,15.356,15.355,15.356
				s15.355-6.875,15.355-15.354c0.002-62.112-24.186-120.504-68.104-164.424C399.67,23.936,341.276-0.252,279.165-0.25z"/>
			<path id="Fill-8" fill="#85CBD5" d="M279.18,155.533c-8.487,0.002-15.362,6.876-15.36,15.358
				c0.002,8.481,6.878,15.356,15.357,15.354c12.65,0,23.599,4.536,32.545,13.481c8.817,8.82,13.48,20.075,13.479,32.544
				c-0.002,8.481,6.875,15.356,15.354,15.358c8.482,0,15.355-6.875,15.357-15.354c0.001-20.792-7.77-39.556-22.477-54.264
				C318.729,163.304,299.971,155.533,279.18,155.533z"/>
		</g>
	</g>
</g>
</svg>
