
<svg width="496px" height="512px" viewBox="0 0 496 512" version="1.1" xmlns="http://www.w3.org/2000/svg" xmlns:xlink="http://www.w3.org/1999/xlink">
    <!-- Generator: Sketch 47 (45396) - http://www.bohemiancoding.com/sketch -->
    <desc>Created with Sketch.</desc>
    <defs>
        <polygon id="path-1" points="278.0002 0 338.0002 0 338.0002 149.998392 278.0002 149.998392"></polygon>
        <polygon id="path-3" points="188.0002 0 248.0002 0 248.0002 149.998392 188.0002 149.998392"></polygon>
        <polygon id="path-5" points="98.0002 0 158.0002 0 158.0002 149.998392 98.0002 149.998392"></polygon>
    </defs>
    <g id="Symbols" stroke="none" stroke-width="1" fill="none" fill-rule="evenodd">
        <g id="Pictos/Thé" transform="translate(0.000000, -1.000000)">
            <g id="Group" transform="translate(0.000000, 1.000000)">
                <g id="Page-1">
                    <path d="M463.7972,284.549 C460.3632,301.71 450.2532,319.383 435.3242,334.311 C418.3772,351.259 397.7522,361.859 379.8962,363.752 C398.8772,328.371 411.7262,287.198 417.1232,243.216 C433.6642,238.791 448.0272,240.947 456.5402,249.459 C466.8912,259.81 465.5292,275.887 463.7972,284.549 L463.7972,284.549 Z M294.1622,420.998 L125.8372,420.998 C69.7522,378.707 33.9512,299.656 30.3072,210.998 L224.9992,210.998 L224.9992,249.785 L199.3932,275.391 C196.5802,278.204 194.9992,282.019 194.9992,285.998 L194.9992,345.998 C194.9992,354.282 201.7152,360.998 209.9992,360.998 L269.9992,360.998 C278.2822,360.998 284.9992,354.282 284.9992,345.998 L284.9992,285.998 C284.9992,282.02 283.4192,278.205 280.6052,275.391 L254.9992,249.785 L254.9992,210.798 L389.6912,210.798 C386.4522,289.578 355.8872,374.453 294.1622,420.998 L294.1622,420.998 Z M350.9732,450.998 L339.8492,473.758 C337.2822,478.842 332.1562,481.998 326.4582,481.998 L93.5412,481.998 C87.8432,481.998 82.7172,478.842 80.1502,473.758 L69.0262,450.998 L350.9732,450.998 Z M225.0002,292.211 L240.0002,277.211 L255.0002,292.211 L255.0002,330.998 L225.0002,330.998 L225.0002,292.211 Z M477.7532,228.245 C463.5432,214.035 442.7322,208.46 419.6662,212.053 C419.8842,206.729 420.0002,201.376 420.0002,195.998 C420.0002,187.714 413.2832,180.998 405.0002,180.998 L15.0002,180.998 C6.7162,180.998 0.0002,187.714 0.0002,195.998 C0.0002,285.197 30.3302,367.639 81.0442,420.998 L15.0002,420.998 C6.7162,420.998 0.0002,427.714 0.0002,435.998 C0.0002,444.282 6.7162,450.998 15.0002,450.998 L35.6352,450.998 L53.2312,487.001 C53.2512,487.042 53.2712,487.083 53.2922,487.123 C60.9642,502.467 76.3872,511.998 93.5412,511.998 L326.4592,511.998 C343.6122,511.998 359.0362,502.467 366.7082,487.123 C366.7292,487.082 366.7492,487.042 366.7692,487.001 L384.3642,450.998 L405.0002,450.998 C413.2832,450.998 420.0002,444.282 420.0002,435.998 C420.0002,427.714 413.2832,420.998 405.0002,420.998 L338.9562,420.998 C347.1372,412.39 354.7892,403.03 361.8672,393.002 C365.7832,393.645 369.8152,393.965 373.9272,393.965 C401.1652,393.965 431.9692,380.095 456.5392,355.524 C475.6092,336.454 488.6342,313.338 493.2162,290.433 C498.2362,265.324 492.7462,243.238 477.7532,228.245 L477.7532,228.245 Z" id="Fill-1" fill="#4D4D4D"></path>
                    <mask id="mask-2" fill="white">
                        <use xlink:href="#path-1"></use>
                    </mask>
                    <g id="Clip-4"></g>
                    <path d="M318.0052,123.82 C315.8962,121.93 308.0002,113.185 308.0002,104.997 C308.0002,97.145 315.4562,88.518 318.0052,86.174 C320.0562,84.343 338.0002,67.614 338.0002,44.997 C338.0002,22.38 320.0552,5.651 318.0042,3.82 C311.8812,-1.688 302.3742,-1.19 296.8212,4.992 C291.3002,11.159 291.8272,20.651 297.9932,26.174 C300.1032,28.064 307.9992,36.809 307.9992,44.997 C308.0002,52.848 300.5442,61.476 297.9952,63.82 C295.9432,65.651 278.0002,82.38 278.0002,104.997 C278.0002,127.614 295.9432,144.343 297.9952,146.174 C304.1422,151.691 313.6492,151.186 319.1772,145.002 C324.6982,138.835 324.1722,129.343 318.0052,123.82" id="Fill-3" fill="#EF8A4A" mask="url(#mask-2)"></path>
                    <mask id="mask-4" fill="white">
                        <use xlink:href="#path-3"></use>
                    </mask>
                    <g id="Clip-7"></g>
                    <path d="M228.0052,123.82 C225.8962,121.93 218.0002,113.185 218.0002,104.997 C218.0002,97.145 225.4562,88.518 228.0052,86.174 C230.0562,84.343 248.0002,67.614 248.0002,44.997 C248.0002,22.38 230.0552,5.651 228.0042,3.82 C221.8662,-1.688 212.3592,-1.19 206.8222,4.992 C201.3002,11.159 201.8272,20.651 207.9942,26.174 C210.1032,28.064 217.9992,36.809 217.9992,44.997 C218.0002,52.848 210.5442,61.476 207.9952,63.82 C205.9442,65.651 188.0002,82.38 188.0002,104.997 C188.0002,127.614 205.9442,144.343 207.9952,146.174 C214.1422,151.691 223.6492,151.186 229.1772,145.002 C234.6992,138.835 234.1722,129.343 228.0052,123.82" id="Fill-6" fill="#EF8A4A" mask="url(#mask-4)"></path>
                    <mask id="mask-6" fill="white">
                        <use xlink:href="#path-5"></use>
                    </mask>
                    <g id="Clip-10"></g>
                    <path d="M138.0052,123.82 C135.8962,121.93 128.0002,113.185 128.0002,104.997 C128.0002,97.145 135.4562,88.518 138.0052,86.174 C140.0562,84.343 158.0002,67.614 158.0002,44.997 C158.0002,22.38 140.0552,5.651 138.0042,3.82 C131.8812,-1.688 122.3742,-1.19 116.8222,4.992 C111.3002,11.159 111.8272,20.651 117.9942,26.174 C120.1032,28.064 127.9992,36.809 127.9992,44.997 C128.0002,52.848 120.5442,61.476 117.9952,63.82 C115.9442,65.651 98.0002,82.38 98.0002,104.997 C98.0002,127.614 115.9442,144.343 117.9952,146.174 C124.1422,151.691 133.6492,151.186 139.1772,145.002 C144.6992,138.835 144.1722,129.343 138.0052,123.82" id="Fill-9" fill="#EF8A4A" mask="url(#mask-6)"></path>
                </g>
            </g>
        </g>
    </g>
</svg>