<?xml version="1.0" encoding="UTF-8"?>
<svg width="512px" height="218px" viewBox="0 0 512 218" version="1.1" xmlns="http://www.w3.org/2000/svg" xmlns:xlink="http://www.w3.org/1999/xlink">
    <!-- Generator: Sketch 47 (45396) - http://www.bohemiancoding.com/sketch -->
    <title>Pictos/Incentive</title>
    <desc>Created with Sketch.</desc>
    <defs>
        <polygon id="path-1" points="348.5635 1.036 511.999 1.036 511.999 218.486 348.5635 218.486"></polygon>
        <polygon id="path-3" points="0.0001 1.0354 163.4341 1.0354 163.4341 218.486 0.0001 218.486"></polygon>
    </defs>
    <g id="Symbols" stroke="none" stroke-width="1" fill="none" fill-rule="evenodd">
        <g id="Pictos/Incentive">
            <path d="M256.1553,142.36 L248.8593,135.254 L248.8593,130.97 C250.2143,131.111 251.5883,131.182 252.9783,131.182 L259.8683,131.182 C261.2573,131.182 262.6293,131.111 263.9823,130.971 L263.9823,134.235 L256.1553,142.36 Z M229.3723,71.851 C239.2383,70.727 256.0753,67.242 269.3103,56.473 C272.3233,61.46 276.8593,66.734 283.4693,69.943 L283.4693,91.275 C283.4693,104.29 272.8823,114.879 259.8663,114.879 L252.9773,114.879 C239.9603,114.879 229.3713,104.29 229.3713,91.275 L229.3713,71.851 L229.3723,71.851 Z M211.3873,82.149 C211.3873,80.793 211.8873,79.561 212.6873,78.586 C212.8143,78.562 212.9393,78.532 213.0673,78.503 L213.0673,86.164 C212.0313,85.137 211.3873,83.716 211.3873,82.149 L211.3873,82.149 Z M254.5313,16.981 L258.1443,16.981 C277.5513,16.981 293.3403,32.769 293.3403,52.177 L293.3403,56.253 C283.2573,53.88 279.9073,40.271 279.8843,40.174 C279.1763,37.049 276.7043,34.629 273.5653,33.988 C270.4273,33.344 267.2033,34.601 265.3263,37.197 C251.8433,55.838 221.6793,56.074 221.2443,56.075 L221.2173,56.075 C220.9373,56.075 220.6583,56.089 220.3863,56.117 C220.3003,56.126 220.2173,56.143 220.1323,56.155 C219.9463,56.179 219.7593,56.203 219.5783,56.24 C219.4963,56.256 219.4173,56.283 219.3373,56.302 L219.3373,52.177 C219.3383,32.77 235.1263,16.981 254.5313,16.981 L254.5313,16.981 Z M299.7763,85.874 L299.7763,78.421 C300.6583,79.419 301.2123,80.714 301.2123,82.148 C301.2123,83.582 300.6583,84.877 299.7763,85.874 L299.7763,85.874 Z M247.5693,1.158 C222.4543,4.57 203.0333,26.14 203.0333,52.176 L203.0333,65.251 C198.1793,69.283 195.0823,75.359 195.0823,82.146 C195.0823,93.622 203.9333,103.052 215.1663,104.011 C218.2303,113.083 224.4663,120.704 232.5543,125.543 L232.5543,129.04 L201.8293,141.074 C198.8313,142.161 174.2843,152.023 174.2843,183.259 L174.2843,210.327 C174.2843,214.829 177.9333,218.486 182.4373,218.486 L201.7403,218.486 C206.2443,218.486 209.8933,214.837 209.8933,210.333 C209.8933,205.83 206.2443,202.18 201.7403,202.18 L190.5903,202.18 L190.5903,183.261 C190.5903,162.652 206.6723,156.66 207.2843,156.44 C207.4113,156.398 207.5363,156.352 207.6613,156.303 L235.7893,145.286 L250.6523,159.76 C252.1753,161.244 254.2163,162.072 256.3393,162.072 C256.3823,162.072 256.4253,162.072 256.4683,162.071 C258.6383,162.038 260.7043,161.139 262.2103,159.577 L276.2263,145.028 L304.2793,156.278 C304.4243,156.337 304.4983,156.365 304.6453,156.416 C305.3313,156.66 321.4123,162.651 321.4123,183.26 L321.4123,202.179 L279.3513,202.179 L232.6503,202.179 L225.8873,202.179 C221.3843,202.179 217.7353,205.829 217.7353,210.332 C217.7353,214.836 221.3843,218.485 225.8873,218.485 L232.6503,218.485 L279.3513,218.485 L329.5653,218.485 C334.0683,218.485 337.7183,214.783 337.7183,210.279 L337.7183,183.26 C337.7173,152.148 313.3623,142.24 310.2083,141.088 L280.2883,129.089 L280.2883,125.546 C288.3823,120.705 294.6213,113.078 297.6833,104.001 C308.8003,102.926 317.5173,93.539 317.5173,82.148 C317.5173,75.399 314.4533,69.356 309.6473,65.325 L309.6473,52.176 C309.6473,25.715 289.5863,3.86 263.8753,1.001 L247.5693,1.158 Z" id="Fill-1" fill="#4D4D4D"></path>
            <mask id="mask-2" fill="white">
                <use xlink:href="#path-1"></use>
            </mask>
            <g id="Clip-4"></g>
            <path d="M430.4375,142.36 L423.1425,135.254 L423.1425,130.97 C424.4955,131.111 425.8695,131.182 427.2595,131.182 L434.1495,131.182 C435.5395,131.182 436.9125,131.111 438.2655,130.971 L438.2655,134.235 L430.4375,142.36 Z M403.6545,71.843 C413.5215,70.717 430.3665,67.233 443.5935,56.472 C446.6055,61.459 451.1415,66.733 457.7515,69.942 L457.7515,91.273 C457.7515,104.289 447.1645,114.878 434.1485,114.878 L427.2585,114.878 C414.2425,114.878 403.6535,104.289 403.6535,91.273 L403.6535,71.843 L403.6545,71.843 Z M385.6695,82.149 C385.6695,80.793 386.1695,79.561 386.9705,78.586 C387.0975,78.562 387.2225,78.532 387.3485,78.503 L387.3485,86.162 C386.3135,85.136 385.6695,83.716 385.6695,82.149 L385.6695,82.149 Z M428.8155,16.981 L432.4285,16.981 C451.8355,16.981 467.6235,32.769 467.6235,52.177 L467.6235,56.253 C457.5405,53.88 454.1905,40.271 454.1675,40.174 C453.4605,37.05 450.9895,34.631 447.8495,33.988 C444.7115,33.344 441.4885,34.601 439.6105,37.197 C426.1255,55.838 395.9625,56.074 395.5275,56.075 L395.5005,56.075 C395.2195,56.075 394.9415,56.089 394.6685,56.117 C394.5835,56.126 394.4995,56.143 394.4155,56.155 C394.2295,56.179 394.0425,56.203 393.8615,56.24 C393.7795,56.256 393.7005,56.283 393.6205,56.302 L393.6205,52.177 C393.6215,32.77 409.4085,16.981 428.8155,16.981 L428.8155,16.981 Z M474.0585,85.874 L474.0585,78.421 C474.9405,79.419 475.4935,80.714 475.4935,82.148 C475.4935,83.582 474.9405,84.877 474.0585,85.874 L474.0585,85.874 Z M422.1285,1.123 C396.8805,4.414 377.3145,26.047 377.3145,52.177 L377.3145,65.252 C372.4595,69.284 369.3635,75.36 369.3635,82.148 C369.3635,93.623 378.2135,103.054 389.4455,104.012 C392.5095,113.085 398.7455,120.705 406.8345,125.544 L406.8345,129.041 L376.1085,141.075 C373.1105,142.162 348.5635,152.025 348.5635,183.26 L348.5635,210.327 C348.5635,214.829 352.2125,218.486 356.7165,218.486 L376.0215,218.486 C380.5255,218.486 384.1745,214.837 384.1745,210.333 C384.1745,205.83 380.5255,202.18 376.0215,202.18 L364.8695,202.18 L364.8695,183.261 C364.8695,162.652 380.9515,156.66 381.5645,156.44 C381.6905,156.398 381.8155,156.352 381.9405,156.303 L410.0695,145.286 L424.9305,159.76 C426.4545,161.243 428.4965,162.072 430.6195,162.072 C430.6615,162.072 430.7055,162.072 430.7485,162.071 C432.9175,162.038 434.9835,161.139 436.4895,159.577 L450.5065,145.028 L478.5585,156.278 C478.7035,156.337 478.7775,156.365 478.9255,156.416 C479.6105,156.66 495.6935,162.651 495.6935,183.26 L495.6935,202.179 L453.6315,202.179 L406.9305,202.179 L400.1665,202.179 C395.6645,202.179 392.0145,205.829 392.0145,210.332 C392.0145,214.836 395.6645,218.485 400.1665,218.485 L406.9305,218.485 L453.6315,218.485 L503.8455,218.485 C508.3495,218.485 511.9995,214.783 511.9995,210.279 L511.9995,183.26 C512.0005,152.151 487.6495,142.241 484.4915,141.088 L454.5715,129.089 L454.5715,125.546 C462.6645,120.704 468.9015,113.078 471.9645,104.001 C483.0805,102.926 491.7995,93.539 491.7995,82.148 C491.7995,75.398 488.7355,69.356 483.9285,65.325 L483.9285,52.176 C483.9285,25.811 464.0115,4.022 438.4345,1.036 L422.1285,1.123 Z" id="Fill-3" fill="#4D4D4D" mask="url(#mask-2)"></path>
            <mask id="mask-4" fill="white">
                <use xlink:href="#path-3"></use>
            </mask>
            <g id="Clip-7"></g>
            <path d="M119.0571,52.1774 L119.0571,56.2524 C108.9741,53.8794 105.6251,40.2714 105.6021,40.1744 C104.8951,37.0504 102.4231,34.6304 99.2841,33.9884 C96.1441,33.3444 92.9211,34.6014 91.0441,37.1974 C77.5611,55.8374 47.3981,56.0734 46.9631,56.0744 L46.9351,56.0744 C46.6551,56.0744 46.3771,56.0884 46.1041,56.1164 C46.0181,56.1254 45.9351,56.1434 45.8491,56.1554 C45.6641,56.1794 45.4781,56.2024 45.2961,56.2394 C45.2151,56.2564 45.1371,56.2824 45.0551,56.3024 L45.0551,52.1774 C45.0551,32.7704 60.8421,16.9814 80.2491,16.9814 L83.8631,16.9814 C103.2701,16.9814 119.0571,32.7704 119.0571,52.1774 L119.0571,52.1774 Z M125.4931,85.8734 L125.4931,78.4204 C126.3751,79.4184 126.9281,80.7134 126.9281,82.1484 C126.9291,83.5814 126.3751,84.8764 125.4931,85.8734 L125.4931,85.8734 Z M85.5831,114.8774 L78.6941,114.8774 C65.6781,114.8774 55.0881,104.2884 55.0881,91.2734 L55.0881,71.8434 C64.9551,70.7174 81.8011,67.2334 95.0281,56.4724 C98.0401,61.4584 102.5761,66.7334 109.1861,69.9424 L109.1861,91.2734 C109.1871,104.2884 98.5991,114.8774 85.5831,114.8774 L85.5831,114.8774 Z M81.8711,142.3604 L74.5761,135.2534 L74.5761,130.9704 C75.9311,131.1114 77.3041,131.1824 78.6941,131.1824 L85.5831,131.1824 C86.9731,131.1824 88.3461,131.1114 89.6991,130.9714 L89.6991,134.2354 L81.8711,142.3604 Z M37.1051,82.1494 C37.1051,80.7924 37.6051,79.5614 38.4061,78.5854 C38.5331,78.5624 38.6581,78.5314 38.7841,78.5024 L38.7841,86.1614 C37.7491,85.1364 37.1051,83.7164 37.1051,82.1494 L37.1051,82.1494 Z M73.5641,1.1224 C48.3161,4.4134 28.7501,26.0474 28.7501,52.1774 L28.7501,65.2514 C23.8981,69.2834 20.8011,75.3604 20.8011,82.1484 C20.8011,93.6224 29.6511,103.0544 40.8831,104.0124 C43.9471,113.0844 50.1821,120.7044 58.2721,125.5434 L58.2721,129.0404 L27.5461,141.0744 C24.5471,142.1624 0.0001,152.0264 0.0001,183.2604 L0.0001,210.3264 C0.0001,214.8284 3.6491,218.4864 8.1531,218.4864 L27.4581,218.4864 C31.9611,218.4864 35.6111,214.8364 35.6111,210.3324 C35.6111,205.8294 31.9611,202.1804 27.4581,202.1804 L16.3061,202.1804 L16.3061,183.2614 C16.3061,162.6524 32.3881,156.6594 33.0011,156.4404 C33.1271,156.3984 33.2521,156.3524 33.3771,156.3034 L61.5051,145.2854 L76.3671,159.7604 C77.8901,161.2424 79.9321,162.0724 82.0551,162.0724 C82.0981,162.0724 82.1411,162.0724 82.1841,162.0714 C84.3541,162.0374 86.4201,161.1394 87.9251,159.5764 L101.9431,145.0284 L129.9941,156.2784 C130.1391,156.3364 130.2131,156.3654 130.3601,156.4154 C131.0451,156.6594 147.1281,162.6514 147.1281,183.2604 L147.1281,202.1794 L105.0671,202.1794 L58.3661,202.1794 L51.6021,202.1794 C47.0991,202.1794 43.4501,205.8284 43.4501,210.3314 C43.4501,214.8354 47.0991,218.4854 51.6021,218.4854 L58.3661,218.4854 L105.0671,218.4854 L155.2811,218.4854 C159.7851,218.4854 163.4341,214.7824 163.4341,210.2794 L163.4341,183.2604 C163.4341,152.1514 139.0831,142.2404 135.9251,141.0874 L106.0051,129.0884 L106.0051,125.5444 C114.0981,120.7034 120.3371,113.0774 123.3991,104.0004 C134.5141,102.9264 143.2331,93.5384 143.2331,82.1484 C143.2331,75.3984 140.1691,69.3564 135.3631,65.3244 L135.3631,52.1764 C135.3631,25.8114 115.4451,4.0224 89.8691,1.0354 L73.5641,1.1224 Z" id="Fill-6" fill="#4D4D4D" mask="url(#mask-4)"></path>
        </g>
    </g>
</svg>