<?xml version="1.0" encoding="utf-8"?>
<!-- Generator: Adobe Illustrator 16.0.0, SVG Export Plug-In . SVG Version: 6.00 Build 0)  -->
<!DOCTYPE svg PUBLIC "-//W3C//DTD SVG 1.1//EN" "http://www.w3.org/Graphics/SVG/1.1/DTD/svg11.dtd">
<svg version="1.1" id="Layer_1" xmlns="http://www.w3.org/2000/svg" xmlns:xlink="http://www.w3.org/1999/xlink" x="0px" y="0px"
	 width="300px" height="272.624px" viewBox="0 0 300 272.624" enable-background="new 0 0 300 272.624" xml:space="preserve">
<g id="Symbols">
	<g id="Pictos_x2F_OpenSpace">
		<g id="Group">
			<g id="Page-1">
				<g id="Clip-2" display="none">
				</g>
				<defs>
					<filter id="Adobe_OpacityMaskFilter" filterUnits="userSpaceOnUse" x="0" y="0" width="300" height="272.624">
						<feColorMatrix  type="matrix" values="1 0 0 0 0  0 1 0 0 0  0 0 1 0 0  0 0 0 1 0"/>
					</filter>
				</defs>
				<mask maskUnits="userSpaceOnUse" x="0" y="0" width="300" height="272.624" id="mask-2_1_">
					<g filter="url(#Adobe_OpacityMaskFilter)">
						<polygon id="path-1_1_" fill="#FFFFFF" points="0,0 300,0 300,272.624 0,272.624 						"/>
					</g>
				</mask>
				<path id="Fill-1" mask="url(#mask-2_1_)" fill="#4E4E4E" d="M19.781,30.004c0-5.638,4.587-10.225,10.226-10.225h239.986
					c5.638,0,10.226,4.587,10.226,10.225v139.978H19.781V30.004z M19.781,189.759h260.437v2.686c0,5.638-4.587,10.225-10.225,10.225
					H30.007c-5.639,0-10.226-4.587-10.226-10.225V189.759z M134.521,252.843l4.293-30.395h22.371l4.293,30.395H134.521z M269.993,0
					H30.007C13.461,0,0,13.459,0,30.004v162.44c0,16.545,13.461,30.004,30.007,30.004h88.832l-4.295,30.396H93.404
					c-5.454,0-9.891,4.436-9.891,9.889c0,5.454,4.437,9.891,9.891,9.891h29.732h53.729h29.732c5.453,0,9.89-4.437,9.89-9.891
					c0-5.453-4.437-9.889-9.89-9.889h-21.141l-4.294-30.396h88.83c16.546,0,30.007-13.459,30.007-30.004V30.004
					C299.999,13.459,286.538,0,269.993,0L269.993,0z"/>
			</g>
		</g>
	</g>
</g>
</svg>
