<svg width="512px" height="512px" viewBox="0 0 512 512" version="1.1" xmlns="http://www.w3.org/2000/svg" xmlns:xlink="http://www.w3.org/1999/xlink">
    <!-- Generator: Sketch 47 (45396) - http://www.bohemiancoding.com/sketch -->
    <desc>Created with Sketch.</desc>
    <defs>
        <polygon id="path-1" points="0 0.4473 501.535275 0.4473 501.535275 502 0 502"></polygon>
    </defs>
    <g id="Symbols" stroke="none" stroke-width="1" fill="none" fill-rule="evenodd">
        <g id="Pictos/Tel">
            <g id="Page-1">
                <g id="Group-3" transform="translate(0.000000, 10.000000)">
                    <mask id="mask-2" fill="white">
                        <use xlink:href="#path-1"></use>
                    </mask>
                    <g id="Clip-2"></g>
                    <path d="M444.7499,438.3683 L344.4259,338.0443 L370.5139,311.9563 L470.8379,412.2773 C470.8379,412.2773 444.7589,438.3773 444.7499,438.3683 L444.7499,438.3683 Z M409.0269,451.6233 L409.0219,451.6283 C386.9279,473.7193 347.8759,477.3683 299.0609,461.8973 C246.8089,445.3403 190.9959,409.1833 141.9049,360.0923 C92.8119,311.0003 56.6559,255.1883 40.0989,202.9363 C24.6289,154.1183 28.2779,115.0663 50.3739,92.9693 L50.3759,92.9673 L53.1459,90.1973 L131.0029,168.0533 L123.8619,175.1943 C123.8569,175.1993 123.8529,175.2053 123.8469,175.2113 C94.2619,204.8333 129.8099,271.3573 180.2249,321.7723 C217.9589,359.5073 264.7179,388.9133 298.2759,388.9133 C309.5609,388.9133 319.3519,385.5883 326.8039,378.1353 C326.8069,378.1323 326.8089,378.1303 326.8119,378.1273 L333.9449,370.9943 L411.8019,448.8493 L409.0269,451.6233 Z M89.7179,31.1573 L190.0419,131.4823 L163.9679,157.5843 L163.9539,157.5703 L163.5789,157.1953 L113.7919,107.4083 L63.6289,57.2463 L89.7179,31.1573 Z M492.5549,390.5593 L392.2319,290.2383 C380.2559,278.2633 360.7739,278.2633 348.7969,290.2383 L322.7089,316.3263 C314.5349,324.5003 311.9509,336.1713 314.9359,346.5663 L305.0929,356.4103 L305.0849,356.4183 C298.0949,363.4163 254.5619,352.6773 201.9399,300.0553 C149.3259,247.4413 138.5839,203.9163 145.5739,196.9123 C145.5739,196.9103 145.5759,196.9103 145.5759,196.9103 L155.4279,187.0593 C158.2089,187.8593 161.0789,188.2663 163.9509,188.2663 C171.8159,188.2663 179.6799,185.2743 185.6689,179.2863 L211.7569,153.1993 C223.7319,141.2233 223.7319,121.7413 211.7569,109.7643 L111.4339,9.4413 C105.6339,3.6403 97.9209,0.4473 89.7179,0.4473 C81.5129,0.4473 73.8029,3.6423 68.0019,9.4413 L41.9119,35.5313 C33.7379,43.7043 31.1539,55.3773 34.1389,65.7723 C34.1389,65.7723 25.7949,74.1963 25.3799,74.7283 C-2.3731,105.5763 -7.5801,154.1463 10.8189,212.2153 C28.8359,269.0723 67.6759,329.3033 120.1859,381.8093 C172.6939,434.3173 232.9249,473.1583 289.7819,491.1773 C312.6219,498.4143 333.9889,502.0003 353.3919,502.0003 C385.2049,502.0003 411.7289,492.3513 430.7419,473.3403 L436.2159,467.8663 C438.9559,468.6543 441.8179,469.0793 444.7479,469.0793 C452.9529,469.0793 460.6649,465.8833 466.4639,460.0853 L492.5539,433.9953 C504.5289,422.0193 504.5289,402.5363 492.5549,390.5593 L492.5549,390.5593 Z" id="Fill-1" fill="#4D4D4D" mask="url(#mask-2)"></path>
                </g>
                <path d="M279.4713,77.8908 C270.9913,77.8908 264.1163,84.7658 264.1163,93.2468 C264.1163,101.7278 270.9923,108.6028 279.4713,108.6028 C312.5723,108.6008 343.6913,121.4928 367.0993,144.8998 C390.5053,168.3058 403.3943,199.4248 403.3943,232.5238 C403.3943,241.0048 410.2693,247.8818 418.7503,247.8818 C427.2303,247.8818 434.1063,241.0068 434.1063,232.5278 C434.1073,191.2238 418.0213,152.3928 388.8163,123.1838 C359.6073,93.9748 320.7743,77.8898 279.4713,77.8908 Z" id="Fill-4" fill="#84CBD5"></path>
                <path d="M279.4655,0.0001 C270.9855,0.0001 264.1105,6.8761 264.1105,15.3561 C264.1105,23.8371 270.9865,30.7121 279.4655,30.7121 C333.3725,30.7101 384.0535,51.7041 422.1745,89.8231 C460.2925,127.9411 481.2865,178.6221 481.2855,232.5291 C481.2855,241.0101 488.1605,247.8851 496.6405,247.8851 C505.1215,247.8851 511.9965,241.0101 511.9965,232.5311 C511.9985,170.4191 487.8105,112.0271 443.8925,68.1071 C399.9695,24.1861 341.5765,-0.0019 279.4655,0.0001 Z" id="Fill-6" fill="#84CBD5"></path>
                <path d="M279.4793,155.7829 C270.9923,155.7849 264.1173,162.6589 264.1193,171.1409 C264.1213,179.6219 270.9973,186.4969 279.4763,186.4949 C292.1263,186.4949 303.0753,191.0309 312.0213,199.9759 C320.8393,208.7959 325.5023,220.0509 325.5003,232.5199 C325.4983,241.0009 332.3753,247.8759 340.8543,247.8779 C349.3373,247.8779 356.2103,241.0029 356.2123,232.5239 C356.2133,211.7319 348.4423,192.9679 333.7353,178.2599 C319.0293,163.5539 300.2703,155.7829 279.4793,155.7829 Z" id="Fill-8" fill="#84CBD5"></path>
            </g>
        </g>
    </g>
</svg>