
<svg width="371px" height="371px" viewBox="0 0 371 371" version="1.1" xmlns="http://www.w3.org/2000/svg" xmlns:xlink="http://www.w3.org/1999/xlink">
    <!-- Generator: Sketch 47 (45396) - http://www.bohemiancoding.com/sketch -->
    <desc>Created with Sketch.</desc>
    <defs>
        <polygon id="path-1" points="0 0.6022 370.402 0.6022 370.402 371 0 371"></polygon>
    </defs>
    <g id="Symbols" stroke="none" stroke-width="1" fill="none" fill-rule="evenodd">
        <g id="Pictos/Loupe" transform="translate(0.000000, -1.000000)">
            <g id="Group">
                <g id="Page-1">
                    <g id="Group-3" transform="translate(0.000000, 0.398000)">
                        <mask id="mask-2" fill="white">
                            <use xlink:href="#path-1"></use>
                        </mask>
                        <g id="Clip-2"></g>
                        <path d="M242.8008,243.8012 C179.0588,243.8012 127.1988,191.9462 127.1988,128.2042 C127.1988,64.4612 179.0588,12.6022 242.8008,12.6022 C306.5428,12.6022 358.4028,64.4612 358.4028,128.2042 C358.4028,191.9462 306.5428,243.8012 242.8008,243.8012 L242.8008,243.8012 Z M134.1838,244.3322 C133.1598,242.8992 132.0198,241.5312 130.7458,240.2622 C129.4728,238.9892 128.1048,237.8442 126.6678,236.8212 L148.9408,214.5472 C151.3398,217.1562 153.8478,219.6652 156.4568,222.0632 L134.1838,244.3322 Z M123.2618,275.3752 L95.6368,247.7542 C99.2968,244.6062 103.8438,243.0122 108.4018,243.0122 C113.4218,243.0122 118.4408,244.9262 122.2618,248.7462 C125.9648,252.4462 127.9998,257.3672 127.9998,262.6022 C127.9998,267.3442 126.3238,271.8242 123.2618,275.3752 L123.2618,275.3752 Z M45.4608,353.2582 C41.7578,356.9612 36.8358,359.0002 31.6018,359.0002 C26.3668,359.0002 21.4448,356.9612 17.7378,353.2582 C14.0388,349.5592 11.9998,344.6372 11.9998,339.4032 C11.9998,334.1642 14.0388,329.2462 17.7418,325.5432 L87.0978,256.1882 L114.8158,283.9032 L45.4608,353.2582 Z M242.8008,0.6022 C172.4408,0.6022 115.1988,57.8442 115.1988,128.2042 C115.1988,157.1532 124.8978,183.8752 141.2068,205.3092 L115.3588,231.1602 C115.1948,231.3242 115.0428,231.4962 114.9018,231.6722 C112.7848,231.2352 110.6128,231.0002 108.4018,231.0002 C99.9608,231.0002 92.0228,234.2902 86.0548,240.2582 L9.2538,317.0592 C3.2848,323.0282 -0.0002,330.9612 -0.0002,339.4032 C-0.0002,347.8442 3.2848,355.7782 9.2538,361.7422 C15.2268,367.7152 23.1598,371.0002 31.6018,371.0002 C40.0388,371.0002 47.9768,367.7152 53.9448,361.7422 L130.7458,284.9462 C136.7148,278.9772 139.9998,271.0432 139.9998,262.6022 C139.9998,260.3912 139.7698,258.2152 139.3278,256.0982 C139.5078,255.9572 139.6798,255.8092 139.8438,255.6452 L165.6908,229.7972 C187.1248,246.1062 213.8518,255.8012 242.8008,255.8012 C313.1598,255.8012 370.4028,198.5632 370.4028,128.2042 C370.4028,57.8442 313.1598,0.6022 242.8008,0.6022 L242.8008,0.6022 Z" id="Fill-1" fill="#1D1D1B" mask="url(#mask-2)"></path>
                    </g>
                    <path d="M242.8008,218.6016 C193.1758,218.6016 152.8008,178.2266 152.8008,128.6016 C152.8008,78.9736 193.1758,38.6016 242.8008,38.6016 C292.4258,38.6016 332.8008,78.9736 332.8008,128.6016 C332.8008,178.2266 292.4258,218.6016 242.8008,218.6016 M242.8008,26.6016 C186.5588,26.6016 140.8008,72.3546 140.8008,128.6016 C140.8008,184.8446 186.5588,230.6016 242.8008,230.6016 C299.0428,230.6016 344.8008,184.8446 344.8008,128.6016 C344.8008,72.3546 299.0428,26.6016 242.8008,26.6016" id="Fill-4" fill="#1D1D1B"></path>
                    <path d="M284.4648,64.5508 C281.6878,62.7418 277.9728,63.5228 276.1598,66.3008 C274.3518,69.0778 275.1368,72.7928 277.9098,74.6018 C296.2498,86.5548 307.1988,106.7418 307.1988,128.6018 C307.1988,143.5348 301.9728,158.0898 292.4808,169.5818 C290.3708,172.1368 290.7308,175.9178 293.2848,178.0268 C294.4058,178.9528 295.7578,179.4018 297.1058,179.4018 C298.8318,179.4018 300.5468,178.6598 301.7348,177.2228 C312.9958,163.5858 319.1988,146.3158 319.1988,128.6018 C319.1988,102.6678 306.2148,78.7268 284.4648,64.5508" id="Fill-6" fill="#1D1D1B"></path>
                    <path d="M256.6836,53.4609 C252.1326,52.6249 247.4646,52.1989 242.8006,52.1989 C239.4886,52.1989 236.8006,54.8869 236.8006,58.1989 C236.8006,61.5119 239.4886,64.1989 242.8006,64.1989 C246.7386,64.1989 250.6796,64.5589 254.5156,65.2619 C254.8826,65.3279 255.2466,65.3629 255.6096,65.3629 C258.4456,65.3629 260.9686,63.3359 261.5036,60.4449 C262.1016,57.1879 259.9456,54.0589 256.6836,53.4609" id="Fill-8" fill="#1D1D1B"></path>
                </g>
            </g>
        </g>
    </g>
</svg>