<svg width="239px" height="230px" viewBox="0 0 239 230" version="1.1" xmlns="http://www.w3.org/2000/svg" xmlns:xlink="http://www.w3.org/1999/xlink">
    <!-- Generator: Sketch 47 (45396) - http://www.bohemiancoding.com/sketch -->
    <desc>Created with Sketch.</desc>
    <defs>
        <polygon id="path-1" points="0 230 238.573188 230 238.573188 0.833278689 0 0.833278689"></polygon>
    </defs>
    <g id="Symbols" stroke="none" stroke-width="1" fill="none" fill-rule="evenodd">
        <g id="Logos/ADM_grand_BLC" transform="translate(0.000000, -3.000000)">
            <g id="Page-1" transform="translate(0.000000, 3.000000)">
                <polygon id="Fill-1" fill="#FEFEFE" points="39 90 43.9015238 90 43.9015238 108.4 55 108.4 55 113 39 113"></polygon>
                <g id="Group-83">
                    <path d="M56.0417929,98.3378197 C58.3210824,98.1078197 59.4437175,96.9540492 59.2774012,95.0763443 L57.2286866,95.0763443 L57.2286866,89.8014262 L62.5810479,89.8014262 L62.5810479,94.2506066 C62.5810479,98.6017541 60.4000363,100.351262 56.4689235,100.415361 L56.0417929,98.3378197 Z" id="Fill-2" fill="#FEFEFE"></path>
                    <path d="M77.2225531,103.216459 L74.1532612,95.7358033 L71.0764095,103.216459 L77.2225531,103.216459 Z M71.8701919,89.6351475 L76.5610678,89.6351475 L86.4757879,112.876459 L81.1574459,112.876459 L79.0406928,107.699574 L69.2620497,107.699574 L67.1452967,112.876459 L61.9554718,112.876459 L71.8701919,89.6351475 Z" id="Fill-4" fill="#FEFEFE"></path>
                    <polygon id="Fill-6" fill="#FEFEFE" points="92.4567492 94.4806066 85.4185454 94.4806066 85.4185454 89.8014262 104.5865 89.8014262 104.5865 94.4806066 97.5482963 94.4806066 97.5482963 112.876836 92.4567492 112.876836"></polygon>
                    <polygon id="Fill-8" fill="#FEFEFE" points="108.49191 89.8006721 125.940003 89.8006721 125.940003 94.3177213 113.549437 94.3177213 113.549437 98.9969016 124.454496 98.9969016 124.454496 103.513951 113.549437 103.513951 113.549437 108.359033 126.106319 108.359033 126.106319 112.876082 108.49191 112.876082"></polygon>
                    <polygon id="Fill-10" fill="#FEFEFE" points="130.639572 89.8006721 135.731119 89.8006721 135.731119 108.261 147.259864 108.261 147.259864 112.876082 130.639572 112.876082"></polygon>
                    <mask id="mask-2" fill="white">
                        <use xlink:href="#path-1"></use>
                    </mask>
                    <g id="Clip-13"></g>
                    <polygon id="Fill-12" fill="#FEFEFE" mask="url(#mask-2)" points="151.332723 112.877213 156.42427 112.877213 156.42427 89.8018033 151.332723 89.8018033"></polygon>
                    <polygon id="Fill-14" fill="#FEFEFE" mask="url(#mask-2)" points="162.20792 89.8006721 179.656013 89.8006721 179.656013 94.3177213 167.265448 94.3177213 167.265448 98.9969016 178.170506 98.9969016 178.170506 103.513951 167.265448 103.513951 167.265448 108.359033 179.822329 108.359033 179.822329 112.876082 162.20792 112.876082"></polygon>
                    <path d="M194.602936,101.009213 C197.078781,101.009213 198.500029,99.689541 198.500029,97.7439672 L198.500029,97.6798689 C198.500029,95.5042951 196.980503,94.384459 194.504658,94.384459 L189.44713,94.384459 L189.44713,101.009213 L194.602936,101.009213 Z M184.355583,89.799541 L194.931788,89.799541 C197.872563,89.799541 200.155632,90.6252787 201.675159,92.1410164 C202.96411,93.4267541 203.659615,95.2403607 203.659615,97.4159344 L203.659615,97.4800328 C203.659615,101.205279 201.641139,103.546754 198.700365,104.632656 L204.351339,112.874951 L198.401751,112.874951 L193.442501,105.492328 L193.378243,105.492328 L189.44713,105.492328 L189.44713,112.874951 L184.355583,112.874951 L184.355583,89.799541 Z" id="Fill-15" fill="#FEFEFE" mask="url(#mask-2)"></path>
                    <polygon id="Fill-16" fill="#FEFEFE" mask="url(#mask-2)" points="73.6456185 121.967869 76.2915598 121.967869 84.7207728 134.561311 93.1462059 121.967869 95.7883673 121.967869 95.7883673 145.043279 93.1802252 145.043279 93.1802252 126.352951 84.7510122 138.712623 84.6187151 138.712623 76.193282 126.383115 76.193282 145.043279 73.6456185 145.043279"></polygon>
                    <path d="M112.618822,115.142902 L115.260983,116.364541 L111.526426,119.923885 L109.477712,119.923885 L112.618822,115.142902 Z M102.930897,121.967492 L119.657026,121.967492 L119.657026,124.339131 L105.546599,124.339131 L105.546599,132.219459 L118.171519,132.219459 L118.171519,134.594869 L105.546599,134.594869 L105.546599,142.671262 L119.819562,142.671262 L119.819562,145.042902 L102.930897,145.042902 L102.930897,121.967492 Z" id="Fill-17" fill="#FEFEFE" mask="url(#mask-2)"></path>
                    <path d="M133.707352,142.637328 C139.558662,142.637328 143.28944,138.682082 143.28944,133.573066 L143.28944,133.505197 C143.28944,128.39618 139.558662,124.373066 133.707352,124.373066 L128.286952,124.373066 L128.286952,142.637328 L133.707352,142.637328 Z M125.67503,121.967492 L133.707352,121.967492 C140.979911,121.967492 146.00342,126.944541 146.00342,133.441098 L146.00342,133.505197 C146.00342,139.997984 140.979911,145.042902 133.707352,145.042902 L125.67503,145.042902 L125.67503,121.967492 Z" id="Fill-18" fill="#FEFEFE" mask="url(#mask-2)"></path>
                    <polygon id="Fill-19" fill="#FEFEFE" mask="url(#mask-2)" points="151.691815 145.043279 154.299958 145.043279 154.299958 121.967869 151.691815 121.967869"></polygon>
                    <path d="M176.677817,136.604164 L171.423734,124.832689 L166.135631,136.604164 L176.677817,136.604164 Z M170.23306,121.801213 L172.678666,121.801213 L183.220852,145.042525 L180.412374,145.042525 L177.702174,138.945639 L165.107494,138.945639 L162.367055,145.042525 L159.690874,145.042525 L170.23306,121.801213 Z" id="Fill-20" fill="#FEFEFE" mask="url(#mask-2)"></path>
                    <path d="M186.862423,141.681885 L188.480227,139.770246 C190.891814,141.94582 193.208902,143.031721 196.410491,143.031721 C199.521362,143.031721 201.570077,141.384016 201.570077,139.11041 L201.570077,139.042541 C201.570077,136.900902 200.409643,135.683033 195.55245,134.66123 C190.234108,133.507459 187.784723,131.791885 187.784723,127.99877 L187.784723,127.934672 C187.784723,124.307459 190.993872,121.637951 195.386134,121.637951 C198.757819,121.637951 201.169406,122.595656 203.516734,124.473361 L201.997208,126.483033 C199.850215,124.737295 197.699443,123.979426 195.321876,123.979426 C192.313062,123.979426 190.396645,125.627131 190.396645,127.700902 L190.396645,127.76877 C190.396645,129.944344 191.587318,131.162213 196.678866,132.251885 C201.830891,133.371721 204.212238,135.253197 204.212238,138.778607 L204.212238,138.846475 C204.212238,142.801721 200.908592,145.373197 196.312214,145.373197 C192.641915,145.373197 189.636882,144.155328 186.862423,141.681885" id="Fill-21" fill="#FEFEFE" mask="url(#mask-2)"></path>
                    <path d="M37.466907,158.733557 L37.466907,158.707164 C37.466907,156.260115 39.2737069,154.254213 41.84027,154.254213 C43.4013753,154.254213 44.3463544,154.804705 45.1590363,155.592738 L44.2027175,156.712574 C43.5261126,156.07159 42.7965887,155.641754 41.8289302,155.641754 C40.2073462,155.641754 39.0317922,156.999131 39.0317922,158.684541 L39.0317922,158.707164 C39.0317922,160.396344 40.2073462,161.776344 41.8289302,161.776344 C42.8721871,161.776344 43.5336724,161.342738 44.2631962,160.652738 L45.219515,161.640607 C44.3350146,162.575689 43.3673561,163.163885 41.7797913,163.163885 C39.3077261,163.163885 37.466907,161.207 37.466907,158.733557" id="Fill-22" fill="#FEFEFE" mask="url(#mask-2)"></path>
                    <path d="M53.9375136,158.733557 L53.9375136,158.707164 C53.9375136,157.033066 52.7430601,155.641754 51.0572175,155.641754 C49.3713749,155.641754 48.195821,157.010443 48.195821,158.684541 L48.195821,158.707164 C48.195821,160.381262 49.3978343,161.776344 51.079897,161.776344 C52.7619597,161.776344 53.9375136,160.407656 53.9375136,158.733557 M46.6347156,158.733557 L46.6347156,158.707164 C46.6347156,156.282738 48.4793147,154.254213 51.079897,154.254213 C53.6880392,154.254213 55.5023989,156.260115 55.5023989,158.684541 L55.5023989,158.707164 C55.5023989,161.135361 53.6615797,163.163885 51.0572175,163.163885 C48.4528553,163.163885 46.6347156,161.157984 46.6347156,158.733557" id="Fill-23" fill="#FEFEFE" mask="url(#mask-2)"></path>
                    <polygon id="Fill-24" fill="#FEFEFE" mask="url(#mask-2)" points="56.6582973 154.399754 58.2723215 154.399754 60.2945766 160.790738 62.3773104 154.373361 63.6360225 154.373361 65.7187563 160.790738 67.7447914 154.399754 69.3058967 154.399754 66.3462224 163.079426 65.0686107 163.079426 62.982097 156.888279 60.8993632 163.079426 59.6141917 163.079426"></polygon>
                    <path d="M77.7615692,158.733557 L77.7615692,158.707164 C77.7615692,157.033066 76.5671157,155.641754 74.8812731,155.641754 C73.1954305,155.641754 72.0198765,157.010443 72.0198765,158.684541 L72.0198765,158.707164 C72.0198765,160.381262 73.2218899,161.776344 74.9039526,161.776344 C76.5860153,161.776344 77.7615692,160.407656 77.7615692,158.733557 M70.4587712,158.733557 L70.4587712,158.707164 C70.4587712,156.282738 72.3033703,154.254213 74.9039526,154.254213 C77.5120947,154.254213 79.3264545,156.260115 79.3264545,158.684541 L79.3264545,158.707164 C79.3264545,161.135361 77.4856353,163.163885 74.8812731,163.163885 C72.2769108,163.163885 70.4587712,161.157984 70.4587712,158.733557" id="Fill-25" fill="#FEFEFE" mask="url(#mask-2)"></path>
                    <path d="M85.2696167,158.670967 C86.335553,158.670967 87.012158,158.105393 87.012158,157.230639 L87.012158,157.204246 C87.012158,156.284246 86.3582325,155.779 85.2582769,155.779 L83.088605,155.779 L83.088605,158.670967 L85.2696167,158.670967 Z M81.5993181,154.399 L85.3754543,154.399 C86.4451706,154.399 87.2767521,154.719492 87.82484,155.262443 C88.27465,155.729984 88.5241245,156.370967 88.5241245,157.121295 L88.5241245,157.143918 C88.5241245,158.561623 87.6925429,159.409984 86.5018693,159.756869 L88.7962784,163.018344 L87.0386174,163.018344 L84.9521037,160.013262 L84.9294242,160.013262 L83.088605,160.013262 L83.088605,163.018344 L81.5993181,163.018344 L81.5993181,154.399 Z" id="Fill-26" fill="#FEFEFE" mask="url(#mask-2)"></path>
                    <polygon id="Fill-27" fill="#FEFEFE" mask="url(#mask-2)" points="90.8287393 154.399754 92.3180263 154.399754 92.3180263 158.732049 96.3511969 154.399754 98.1768964 154.399754 94.6540145 158.106148 98.3356528 163.019098 96.5326328 163.019098 93.6372171 159.139262 92.3180263 160.519262 92.3180263 163.019098 90.8287393 163.019098"></polygon>
                    <polygon id="Fill-28" fill="#FEFEFE" mask="url(#mask-2)" points="100.163998 163.020984 101.657065 163.020984 101.657065 154.401639 100.163998 154.401639"></polygon>
                    <polygon id="Fill-29" fill="#FEFEFE" mask="url(#mask-2)" points="104.39826 154.399754 105.77793 154.399754 110.317609 160.357131 110.317609 154.399754 111.784217 154.399754 111.784217 163.019098 110.536844 163.019098 105.864868 156.888279 105.864868 163.019098 104.39826 163.019098"></polygon>
                    <path d="M114.058214,158.733557 L114.058214,158.707164 C114.058214,156.29782 115.872574,154.254213 118.427797,154.254213 C119.909524,154.254213 120.816704,154.668967 121.689865,155.423066 L120.744886,156.565525 C120.09096,155.999951 119.448375,155.641754 118.371098,155.641754 C116.809993,155.641754 115.619319,157.033066 115.619319,158.684541 L115.619319,158.707164 C115.619319,160.479295 116.772194,161.787656 118.503396,161.787656 C119.304738,161.787656 120.030482,161.527492 120.55211,161.135361 L120.55211,159.52159 L118.382438,159.52159 L118.382438,158.201918 L121.992258,158.201918 L121.992258,161.82159 C121.156897,162.549295 119.958663,163.163885 118.454257,163.163885 C115.800755,163.163885 114.058214,161.244705 114.058214,158.733557" id="Fill-30" fill="#FEFEFE" mask="url(#mask-2)"></path>
                    <path d="M133.644606,159.595492 L132.177998,156.145492 L130.73029,159.595492 L133.644606,159.595492 Z M131.516513,154.335656 L132.896182,154.335656 L136.62696,163.019098 L135.050734,163.019098 L134.192694,160.937787 L130.182202,160.937787 L129.312822,163.019098 L127.781956,163.019098 L131.516513,154.335656 Z" id="Fill-31" fill="#FEFEFE" mask="url(#mask-2)"></path>
                    <path d="M137.845226,161.762393 L138.741067,160.676492 C139.553749,161.392885 140.366431,161.800098 141.417247,161.800098 C142.339547,161.800098 142.921654,161.370262 142.921654,160.714197 L142.921654,160.691574 C142.921654,160.076984 142.581461,159.74141 141.009016,159.375672 C139.202216,158.930754 138.185419,158.387803 138.185419,156.800426 L138.185419,156.774033 C138.185419,155.29977 139.394992,154.277967 141.077055,154.277967 C142.316867,154.277967 143.295866,154.658787 144.157686,155.360098 L143.356344,156.502557 C142.596581,155.925672 141.833038,155.620262 141.058155,155.620262 C140.184995,155.620262 139.674706,156.072721 139.674706,156.642066 L139.674706,156.664689 C139.674706,157.328295 140.064037,157.626164 141.689401,158.018295 C143.477302,158.463213 144.410941,159.115508 144.410941,160.544525 L144.410941,160.567148 C144.410941,162.180918 143.163569,163.142393 141.383228,163.142393 C140.086717,163.142393 138.865804,162.686164 137.845226,161.762393" id="Fill-32" fill="#FEFEFE" mask="url(#mask-2)"></path>
                    <path d="M145.947477,161.762393 L146.843317,160.676492 C147.655999,161.392885 148.468681,161.800098 149.519498,161.800098 C150.441797,161.800098 151.023904,161.370262 151.023904,160.714197 L151.023904,160.691574 C151.023904,160.076984 150.683712,159.74141 149.111267,159.375672 C147.304467,158.930754 146.287669,158.387803 146.287669,156.800426 L146.287669,156.774033 C146.287669,155.29977 147.497242,154.277967 149.179305,154.277967 C150.419118,154.277967 151.398116,154.658787 152.259937,155.360098 L151.458595,156.502557 C150.698831,155.925672 149.935288,155.620262 149.160406,155.620262 C148.287245,155.620262 147.776956,156.072721 147.776956,156.642066 L147.776956,156.664689 C147.776956,157.328295 148.166288,157.626164 149.791652,158.018295 C151.579552,158.463213 152.513191,159.115508 152.513191,160.544525 L152.513191,160.567148 C152.513191,162.180918 151.265819,163.142393 149.485478,163.142393 C148.188967,163.142393 146.968054,162.686164 145.947477,161.762393" id="Fill-33" fill="#FEFEFE" mask="url(#mask-2)"></path>
                    <path d="M161.668904,158.733557 L161.668904,158.707164 C161.668904,157.033066 160.474451,155.641754 158.788608,155.641754 C157.102765,155.641754 155.927211,157.010443 155.927211,158.684541 L155.927211,158.707164 C155.927211,160.381262 157.129225,161.776344 158.811287,161.776344 C160.49335,161.776344 161.668904,160.407656 161.668904,158.733557 M154.366106,158.733557 L154.366106,158.707164 C154.366106,156.282738 156.210705,154.254213 158.811287,154.254213 C161.41943,154.254213 163.233789,156.260115 163.233789,158.684541 L163.233789,158.707164 C163.233789,161.135361 161.39297,163.163885 158.788608,163.163885 C156.184246,163.163885 154.366106,161.157984 154.366106,158.733557" id="Fill-34" fill="#FEFEFE" mask="url(#mask-2)"></path>
                    <path d="M165.131307,158.733557 L165.131307,158.707164 C165.131307,156.260115 166.938107,154.254213 169.50089,154.254213 C171.065776,154.254213 172.010755,154.804705 172.819657,155.592738 L171.863338,156.712574 C171.186733,156.07159 170.460989,155.641754 169.489551,155.641754 C167.867967,155.641754 166.692413,156.999131 166.692413,158.684541 L166.692413,158.707164 C166.692413,160.396344 167.867967,161.776344 169.489551,161.776344 C170.532807,161.776344 171.198073,161.342738 171.927597,160.652738 L172.883915,161.640607 C171.995635,162.575689 171.031756,163.163885 169.444192,163.163885 C166.972126,163.163885 165.131307,161.207 165.131307,158.733557" id="Fill-35" fill="#FEFEFE" mask="url(#mask-2)"></path>
                    <polygon id="Fill-36" fill="#FEFEFE" mask="url(#mask-2)" points="175.002558 163.020984 176.495625 163.020984 176.495625 154.401639 175.002558 154.401639"></polygon>
                    <path d="M184.370703,159.595492 L182.904095,156.145492 L181.452607,159.595492 L184.370703,159.595492 Z M182.23883,154.335656 L183.618499,154.335656 L187.349276,163.019098 L185.773051,163.019098 L184.91501,160.937787 L180.904519,160.937787 L180.035139,163.019098 L178.508053,163.019098 L182.23883,154.335656 Z" id="Fill-37" fill="#FEFEFE" mask="url(#mask-2)"></path>
                    <polygon id="Fill-38" fill="#FEFEFE" mask="url(#mask-2)" points="190.26586 155.802754 187.578339 155.802754 187.578339 154.400131 194.457787 154.400131 194.457787 155.802754 191.766486 155.802754 191.766486 163.019475 190.26586 163.019475"></polygon>
                    <polygon id="Fill-39" fill="#FEFEFE" mask="url(#mask-2)" points="196.589659 163.020984 198.082726 163.020984 198.082726 154.401639 196.589659 154.401639"></polygon>
                    <polygon id="Fill-40" fill="#FEFEFE" mask="url(#mask-2)" points="200.822788 154.399754 207.131468 154.399754 207.131468 155.779754 202.312075 155.779754 202.312075 158.12877 206.58338 158.12877 206.58338 159.50877 202.312075 159.50877 202.312075 163.019098 200.822788 163.019098"></polygon>
                    <path d="M122.086756,222.379082 C122.086756,220.275148 123.795278,218.570885 125.904471,218.570885 C128.009885,218.570885 129.725967,220.275148 129.725967,222.379082 C129.725967,224.483016 128.009885,226.191049 125.904471,226.191049 C123.795278,226.191049 122.086756,224.483016 122.086756,222.379082" id="Fill-41" fill="#84CBD5" mask="url(#mask-2)"></path>
                    <path d="M230.936624,102.071361 C230.936624,99.9636557 232.645146,98.2631639 234.754339,98.2631639 C236.859752,98.2631639 238.575834,99.9636557 238.575834,102.071361 C238.575834,104.175295 236.859752,105.875787 234.754339,105.875787 C232.645146,105.875787 230.936624,104.175295 230.936624,102.071361" id="Fill-42" fill="#EF8A4A" mask="url(#mask-2)"></path>
                    <path d="M91.6002202,28.3148852 C91.6002202,26.2109508 93.3087423,24.5066885 95.4217155,24.5066885 C97.5271288,24.5066885 99.2356509,26.2109508 99.2356509,28.3148852 C99.2356509,30.4188197 97.5271288,32.1268525 95.4217155,32.1268525 C93.3087423,32.1268525 91.6002202,30.4188197 91.6002202,28.3148852" id="Fill-43" fill="#CBD301" mask="url(#mask-2)"></path>
                    <path d="M15.3853927,178.278279 C15.3853927,176.804016 16.5874061,175.60877 18.0653533,175.60877 C19.5433005,175.60877 20.7415339,176.804016 20.7415339,178.278279 C20.7415339,179.752541 19.5433005,180.947787 18.0653533,180.947787 C16.5874061,180.947787 15.3853927,179.752541 15.3853927,178.278279" id="Fill-44" fill="#EF8A4A" mask="url(#mask-2)"></path>
                    <path d="M23.9790321,47.219 C23.9790321,45.7447377 25.1772655,44.5494918 26.6552128,44.5494918 C28.1369399,44.5494918 29.3351733,45.7447377 29.3351733,47.219 C29.3351733,48.6932623 28.1369399,49.8885082 26.6552128,49.8885082 C25.1772655,49.8885082 23.9790321,48.6932623 23.9790321,47.219" id="Fill-45" fill="#EF8A4A" mask="url(#mask-2)"></path>
                    <path d="M146.279731,206.001197 C146.279731,204.523164 147.477965,203.331689 148.959692,203.331689 C150.437639,203.331689 151.635873,204.523164 151.635873,206.001197 C151.635873,207.475459 150.437639,208.674475 148.959692,208.674475 C147.477965,208.674475 146.279731,207.475459 146.279731,206.001197" id="Fill-46" fill="#EF8A4A" mask="url(#mask-2)"></path>
                    <path d="M134.678035,3.50655738 C134.678035,2.02852459 135.876268,0.83704918 137.357995,0.83704918 C138.835943,0.83704918 140.034176,2.02852459 140.034176,3.50655738 C140.034176,4.98081967 138.835943,6.17983607 137.357995,6.17983607 C135.876268,6.17983607 134.678035,4.98081967 134.678035,3.50655738" id="Fill-47" fill="#EF8A4A" mask="url(#mask-2)"></path>
                    <path d="M222.468855,123.403672 C222.468855,121.92941 223.663309,120.734164 225.145036,120.734164 C226.626763,120.734164 227.824997,121.92941 227.824997,123.403672 C227.824997,124.881705 226.626763,126.076951 225.145036,126.076951 C223.663309,126.076951 222.468855,124.881705 222.468855,123.403672" id="Fill-48" fill="#84CBD5" mask="url(#mask-2)"></path>
                    <path d="M28.6003576,197.962885 C28.6003576,196.488623 29.798591,195.293377 31.2803182,195.293377 C32.7620453,195.293377 33.9602787,196.488623 33.9602787,197.962885 C33.9602787,199.440918 32.7620453,200.632393 31.2803182,200.632393 C29.798591,200.632393 28.6003576,199.440918 28.6003576,197.962885" id="Fill-49" fill="#CBD301" mask="url(#mask-2)"></path>
                    <path d="M27.4599569,71.9922623 C27.4599569,69.8807869 29.1760389,68.1802951 31.2814522,68.1802951 C33.3906454,68.1802951 35.0991675,69.8807869 35.0991675,71.9922623 C35.0991675,74.0961967 33.3906454,75.800459 31.2814522,75.800459 C29.1760389,75.800459 27.4599569,74.0961967 27.4599569,71.9922623" id="Fill-50" fill="#84CBD5" mask="url(#mask-2)"></path>
                    <path d="M86.2402991,6.17983607 C86.2402991,4.70180328 87.4385325,3.50655738 88.9202597,3.50655738 C90.3982069,3.50655738 91.5964403,4.70180328 91.5964403,6.17983607 C91.5964403,7.65786885 90.3982069,8.84934426 88.9202597,8.84934426 C87.4385325,8.84934426 86.2402991,7.65786885 86.2402991,6.17983607" id="Fill-51" fill="#84CBD5" mask="url(#mask-2)"></path>
                    <path d="M87.779859,59.7988689 C87.779859,57.6949344 89.4883811,55.9869016 91.6013542,55.9869016 C93.7067675,55.9869016 95.4190695,57.6949344 95.4190695,59.7988689 C95.4190695,61.9028033 93.7067675,63.6070656 91.6013542,63.6070656 C89.4883811,63.6070656 87.779859,61.9028033 87.779859,59.7988689" id="Fill-52" fill="#CBD301" mask="url(#mask-2)"></path>
                    <path d="M0,125.716115 C0,123.60841 1.71230202,121.907918 3.82149524,121.907918 C5.92690854,121.907918 7.63921056,123.60841 7.63921056,125.716115 C7.63921056,127.820049 5.92690854,129.520541 3.82149524,129.520541 C1.71230202,129.520541 0,127.820049 0,125.716115" id="Fill-53" fill="#CBD301" mask="url(#mask-2)"></path>
                    <path d="M228.256663,149.604066 C228.256663,147.500131 229.965185,145.795869 232.078158,145.795869 C234.179792,145.795869 235.895874,147.500131 235.895874,149.604066 C235.895874,151.708 234.179792,153.416033 232.078158,153.416033 C229.965185,153.416033 228.256663,151.708 228.256663,149.604066" id="Fill-54" fill="#CBD301" mask="url(#mask-2)"></path>
                    <path d="M219.792675,61.1924426 C219.792675,59.7181803 220.990908,58.5191639 222.476415,58.5191639 C223.954363,58.5191639 225.148816,59.7181803 225.148816,61.1924426 C225.148816,62.6704754 223.954363,63.8657213 222.476415,63.8657213 C220.990908,63.8657213 219.792675,62.6704754 219.792675,61.1924426" id="Fill-55" fill="#8A8583" mask="url(#mask-2)"></path>
                    <path d="M115.974254,43.4096721 C115.974254,41.3057377 117.686556,39.6052459 119.795749,39.6052459 C121.904942,39.6052459 123.613464,41.3057377 123.613464,43.4096721 C123.613464,45.5136066 121.904942,47.2216393 119.795749,47.2216393 C117.686556,47.2216393 115.974254,45.5136066 115.974254,43.4096721" id="Fill-56" fill="#4D4D4D" mask="url(#mask-2)"></path>
                    <path d="M4.95736004,85.9457213 C4.95736004,84.471459 6.15559346,83.2762131 7.6373206,83.2762131 C9.11526782,83.2762131 10.3135012,84.471459 10.3135012,85.9457213 C10.3135012,87.4237541 9.11526782,88.619 7.6373206,88.619 C6.15559346,88.619 4.95736004,87.4237541 4.95736004,85.9457213" id="Fill-57" fill="#8A8583" mask="url(#mask-2)"></path>
                    <path d="M91.5964403,226.190295 C91.5964403,224.086361 93.3125223,222.378328 95.4179356,222.378328 C97.5309087,222.378328 99.2356509,224.086361 99.2356509,226.190295 C99.2356509,228.29423 97.5309087,229.998492 95.4179356,229.998492 C93.3125223,229.998492 91.5964403,228.29423 91.5964403,226.190295" id="Fill-58" fill="#EF8A4A" mask="url(#mask-2)"></path>
                    <path d="M193.953168,200.512869 C193.953168,198.408934 195.66547,196.704672 197.770883,196.704672 C199.876297,196.704672 201.592379,198.408934 201.592379,200.512869 C201.592379,202.616803 199.876297,204.324836 197.770883,204.324836 C195.66547,204.324836 193.953168,202.616803 193.953168,200.512869" id="Fill-59" fill="#4D4D4D" mask="url(#mask-2)"></path>
                    <path d="M164.825134,54.5571311 C160.391292,54.5571311 156.792812,50.967623 156.792812,46.5448361 C156.792812,42.1182787 160.391292,38.5287705 164.825134,38.5287705 C169.258976,38.5287705 172.865016,42.1182787 172.865016,46.5448361 C172.865016,50.967623 169.258976,54.5571311 164.825134,54.5571311" id="Fill-60" fill="#CBD301" mask="url(#mask-2)"></path>
                    <path d="M60.1611456,67.9325738 C55.7084043,67.9325738 52.1212639,64.3392951 52.1212639,59.9165082 C52.1212639,55.4861803 55.7084043,51.8929016 60.1611456,51.8929016 C64.5987671,51.8929016 68.1934674,55.4861803 68.1934674,59.9165082 C68.1934674,64.3392951 64.5987671,67.9325738 60.1611456,67.9325738" id="Fill-61" fill="#EF8A4A" mask="url(#mask-2)"></path>
                    <path d="M45.1265291,187.104623 C43.0173358,187.104623 41.3088137,185.400361 41.3088137,183.292656 C41.3088137,181.192492 43.0173358,179.48823 45.1265291,179.48823 C47.2357223,179.48823 48.9480243,181.192492 48.9480243,183.292656 C48.9480243,185.400361 47.2357223,187.104623 45.1265291,187.104623" id="Fill-62" fill="#EF8A4A" mask="url(#mask-2)"></path>
                    <path d="M189.283838,184.462639 C187.174644,184.462639 185.462342,182.750836 185.462342,180.650672 C185.462342,178.546738 187.174644,176.842475 189.283838,176.842475 C191.393031,176.842475 193.101553,178.546738 193.101553,180.650672 C193.101553,182.750836 191.393031,184.462639 189.283838,184.462639" id="Fill-63" fill="#EF8A4A" mask="url(#mask-2)"></path>
                    <path d="M186.459862,67.9325738 C183.503968,67.9325738 181.103721,65.5383115 181.103721,62.5860164 C181.103721,59.6412623 183.503968,57.247 186.459862,57.247 C189.415757,57.247 191.819783,59.6412623 191.819783,62.5860164 C191.819783,65.5383115 189.415757,67.9325738 186.459862,67.9325738" id="Fill-64" fill="#EF8A4A" mask="url(#mask-2)"></path>
                    <path d="M130.857673,30.8682623 C128.74848,30.8682623 127.039958,29.164 127.039958,27.0600656 C127.039958,24.9561311 128.74848,23.2480984 130.857673,23.2480984 C132.970647,23.2480984 134.679169,24.9561311 134.679169,27.0600656 C134.679169,29.164 132.970647,30.8682623 130.857673,30.8682623" id="Fill-65" fill="#84CBD5" mask="url(#mask-2)"></path>
                    <path d="M64.4173312,225.052361 C62.9318241,225.052361 61.7373706,223.853344 61.7373706,222.379082 C61.7373706,220.90482 62.9318241,219.709574 64.4173312,219.709574 C65.8952784,219.709574 67.0935118,220.90482 67.0935118,222.379082 C67.0935118,223.853344 65.8952784,225.052361 64.4173312,225.052361" id="Fill-66" fill="#84CBD5" mask="url(#mask-2)"></path>
                    <path d="M157.52347,191.456525 C154.567576,191.456525 152.163549,189.058492 152.163549,186.109967 C152.163549,183.157672 154.567576,180.76341 157.52347,180.76341 C160.479364,180.76341 162.879611,183.157672 162.879611,186.109967 C162.879611,189.058492 160.479364,191.456525 157.52347,191.456525" id="Fill-67" fill="#EF8A4A" mask="url(#mask-2)"></path>
                    <path d="M26.6586147,145.954984 C24.5456416,145.954984 22.8371195,144.246951 22.8371195,142.143016 C22.8371195,140.042852 24.5456416,138.33482 26.6586147,138.33482 C28.7678079,138.33482 30.47633,140.042852 30.47633,142.143016 C30.47633,144.246951 28.7678079,145.954984 26.6586147,145.954984" id="Fill-68" fill="#84CBD5" mask="url(#mask-2)"></path>
                    <path d="M125.154536,187.533328 C122.198642,187.533328 119.794615,185.139066 119.794615,182.18677 C119.794615,179.238246 122.198642,176.840213 125.154536,176.840213 C128.11043,176.840213 130.510677,179.238246 130.510677,182.18677 C130.510677,185.139066 128.11043,187.533328 125.154536,187.533328" id="Fill-69" fill="#4D4D4D" mask="url(#mask-2)"></path>
                    <path d="M172.864638,225.054246 C171.379131,225.054246 170.184677,223.85523 170.184677,222.380967 C170.184677,220.902934 171.379131,219.707689 172.864638,219.707689 C174.346365,219.707689 175.540818,220.902934 175.540818,222.380967 C175.540818,223.85523 174.346365,225.054246 172.864638,225.054246" id="Fill-70" fill="#CBD301" mask="url(#mask-2)"></path>
                    <path d="M196.633129,33.9725082 C195.155181,33.9725082 193.953168,32.7734918 193.953168,31.2992295 C193.953168,29.8211967 195.155181,28.6297213 196.633129,28.6297213 C198.111076,28.6297213 199.309309,29.8211967 199.309309,31.2992295 C199.309309,32.7734918 198.111076,33.9725082 196.633129,33.9725082" id="Fill-71" fill="#CBD301" mask="url(#mask-2)"></path>
                    <path d="M154.843887,22.8193934 C153.36216,22.8193934 152.163927,21.620377 152.163927,20.1461148 C152.163927,18.6718525 153.36216,17.4728361 154.843887,17.4728361 C156.321835,17.4728361 157.523848,18.6718525 157.523848,20.1461148 C157.523848,21.620377 156.321835,22.8193934 154.843887,22.8193934" id="Fill-72" fill="#CBD301" mask="url(#mask-2)"></path>
                    <path d="M67.0935118,39.038918 C64.9843186,39.038918 63.2720166,37.3346557 63.2720166,35.2269508 C63.2720166,33.1267869 64.9843186,31.4225246 67.0935118,31.4225246 C69.202705,31.4225246 70.9150071,33.1267869 70.9150071,35.2269508 C70.9150071,37.3346557 69.202705,39.038918 67.0935118,39.038918" id="Fill-73" fill="#4D4D4D" mask="url(#mask-2)"></path>
                    <path d="M133.393619,67.9325738 C130.433945,67.9325738 128.037478,65.5383115 128.037478,62.5860164 C128.037478,59.6299508 130.433945,57.2432295 133.393619,57.2432295 C136.353294,57.2432295 138.74976,59.6299508 138.74976,62.5860164 C138.74976,65.5383115 136.353294,67.9325738 133.393619,67.9325738" id="Fill-74" fill="#8A8583" mask="url(#mask-2)"></path>
                    <path d="M79.3967609,209.407082 C77.2875677,209.407082 75.5752657,207.70282 75.5752657,205.598885 C75.5752657,203.494951 77.2875677,201.790689 79.3967609,201.790689 C81.5059541,201.790689 83.2144762,203.494951 83.2144762,205.598885 C83.2144762,207.70282 81.5059541,209.407082 79.3967609,209.407082" id="Fill-75" fill="#8A8583" mask="url(#mask-2)"></path>
                    <path d="M104.272767,205.980836 C99.8389255,205.980836 96.2366654,202.391328 96.2366654,197.96477 C96.2366654,193.545754 99.8389255,189.944934 104.272767,189.944934 C108.717949,189.944934 112.308869,193.545754 112.308869,197.96477 C112.308869,202.391328 108.717949,205.980836 104.272767,205.980836" id="Fill-76" fill="#84CBD5" mask="url(#mask-2)"></path>
                    <path d="M222.472635,180.763787 C220.990908,180.763787 219.796455,179.56477 219.796455,178.094279 C219.796455,176.612475 220.990908,175.421 222.472635,175.421 C223.950583,175.421 225.148816,176.612475 225.148816,178.094279 C225.148816,179.56477 223.950583,180.763787 222.472635,180.763787" id="Fill-77" fill="#84CBD5" mask="url(#mask-2)"></path>
                    <path d="M203.199977,53.1967377 C201.090784,53.1967377 199.382262,51.4887049 199.382262,49.388541 C199.382262,47.2846066 201.090784,45.5765738 203.199977,45.5765738 C205.31295,45.5765738 207.021472,47.2846066 207.021472,49.388541 C207.021472,51.4887049 205.31295,53.1967377 203.199977,53.1967377" id="Fill-78" fill="#4D4D4D" mask="url(#mask-2)"></path>
                    <path d="M68.6806986,183.624836 C68.6806986,180.676311 71.0847253,178.282049 74.0368398,178.282049 C76.9965142,178.282049 79.3967609,180.676311 79.3967609,183.624836 C79.3967609,186.573361 76.9965142,188.967623 74.0368398,188.967623 C71.0847253,188.967623 68.6806986,186.573361 68.6806986,183.624836" id="Fill-79" fill="#CBD301" mask="url(#mask-2)"></path>
                    <path d="M41.8742892,130.27841 L41.8742892,130.248246 C41.8742892,128.905951 41.0011286,128.016115 39.946532,128.016115 C38.8957153,128.016115 38.007435,128.890869 38.007435,130.248246 L38.007435,130.27841 C38.007435,131.620705 38.8957153,132.510541 39.946532,132.510541 C41.0011286,132.510541 41.8742892,131.620705 41.8742892,130.27841 M35.7546049,130.27841 L35.7546049,130.248246 C35.7546049,127.548574 37.4895865,126.074311 39.3719847,126.074311 C40.5702181,126.074311 41.3148616,126.632344 41.8440499,127.280869 L41.8440499,123.29923 L44.0968799,123.29923 L44.0968799,134.301525 L41.8440499,134.301525 L41.8440499,133.143984 C41.2997419,133.894311 40.5399788,134.452344 39.3719847,134.452344 C37.5198258,134.452344 35.7546049,132.978082 35.7546049,130.27841" id="Fill-80" fill="#FEFEFE" mask="url(#mask-2)"></path>
                    <path d="M51.623071,129.630262 C51.486994,128.604689 50.8973271,127.910918 49.9485681,127.910918 C49.0149288,127.910918 48.4025824,128.589607 48.2287063,129.630262 L51.623071,129.630262 Z M46.0212352,130.308951 L46.0212352,130.278787 C46.0212352,127.971246 47.6314795,126.074689 49.9485681,126.074689 C52.6020692,126.074689 53.8154223,128.167311 53.8154223,130.45977 C53.8154223,130.640754 53.8003027,130.851902 53.785183,131.063049 L48.2551657,131.063049 C48.4781807,132.103705 49.188805,132.642885 50.1980426,132.642885 C50.9540258,132.642885 51.5021136,132.401574 52.1257998,131.817148 L53.4147512,132.978459 C52.6738877,133.90977 51.6079513,134.482885 50.1678032,134.482885 C47.7826761,134.482885 46.0212352,132.778623 46.0212352,130.308951 L46.0212352,130.308951 Z" id="Fill-81" fill="#FEFEFE" mask="url(#mask-2)"></path>
                    <path d="M55.1633404,133.233344 L56.1272191,131.725148 C56.98526,132.35859 57.8924399,132.690393 58.6333035,132.690393 C59.287229,132.690393 59.5820624,132.449082 59.5820624,132.087115 L59.5820624,132.056951 C59.5820624,131.559246 58.8109595,131.393344 57.934019,131.121869 C56.8227236,130.790066 55.5640115,130.262197 55.5640115,128.693672 L55.5640115,128.667279 C55.5640115,127.023344 56.8680826,126.103344 58.4707671,126.103344 C59.4800047,126.103344 60.5761804,126.45023 61.4342213,127.038426 L60.5761804,128.618262 C59.7899578,128.154492 59.0037353,127.867934 58.4254081,127.867934 C57.8773202,127.867934 57.5976064,128.109246 57.5976064,128.425967 L57.5976064,128.452361 C57.5976064,128.90859 58.3535897,129.119738 59.2116306,129.417607 C60.322926,129.794656 61.6118774,130.337607 61.6118774,131.815639 L61.6118774,131.845803 C61.6118774,133.640557 60.2926867,134.454984 58.5728248,134.454984 C57.4615295,134.454984 56.217937,134.077934 55.1633404,133.233344" id="Fill-82" fill="#FEFEFE" mask="url(#mask-2)"></path>
                </g>
            </g>
        </g>
    </g>
</svg>