<svg width="236px" height="230px" viewBox="0 0 236 230" version="1.1" xmlns="http://www.w3.org/2000/svg" xmlns:xlink="http://www.w3.org/1999/xlink">
    <!-- Generator: Sketch 47 (45396) - http://www.bohemiancoding.com/sketch -->
    <desc>Created with Sketch.</desc>
    <defs>
        <polygon id="path-1" points="0 229.241935 235.698813 229.241935 235.698813 0.830532258 0 0.830532258"></polygon>
    </defs>
    <g id="Symbols" stroke="none" stroke-width="1" fill="none" fill-rule="evenodd">
        <g id="Logos/ADM_grand" transform="translate(0.000000, -3.000000)">
            <g id="Page-1" transform="translate(0.000000, 2.000000)">
                <g id="Group-83" transform="translate(0.000000, 0.926405)">
                    <path d="M52.1849031,92.7302419 C54.2164031,92.3544355 55.1836063,91.2946613 55.0192938,89.5133387 L53.3201531,89.5133387 L53.3201531,84.8232742 L57.7491219,84.8232742 L57.7491219,88.8256129 C57.7491219,92.6287742 55.9864969,94.2372258 52.6180906,94.5115645 L52.1849031,92.7302419 Z" id="Fill-2" fill="#8A8583"></path>
                    <path d="M74.3174234,99.2700258 L70.2842984,89.6832032 L66.2847828,99.2700258 L74.3174234,99.2700258 Z M68.4507203,84.6511548 L72.2485797,84.6511548 L82.5181109,108.785445 L78.1825016,108.785445 L75.8149078,103.001784 L64.7835641,103.001784 L62.3860953,108.785445 L58.1849234,108.785445 L68.4507203,84.6511548 Z" id="Fill-4" fill="#8A8583"></path>
                    <polygon id="Fill-6" fill="#8A8583" points="89.9334594 88.7241452 82.5319281 88.7241452 82.5319281 84.8232742 101.465209 84.8232742 101.465209 88.7241452 94.0636781 88.7241452 94.0636781 108.784694 89.9334594 108.784694"></polygon>
                    <polygon id="Fill-8" fill="#8A8583" points="106.478981 84.8232742 123.780341 84.8232742 123.780341 88.5888548 110.579325 88.5888548 110.579325 94.8197258 122.279122 94.8197258 122.279122 98.5853065 110.579325 98.5853065 110.579325 105.022871 123.948388 105.022871 123.948388 108.784694 106.478981 108.784694"></polygon>
                    <polygon id="Fill-10" fill="#8A8583" points="129.494308 84.8232742 133.598386 84.8232742 133.598386 104.951468 145.862073 104.951468 145.862073 108.784694 129.494308 108.784694"></polygon>
                    <mask id="mask-2" fill="white">
                        <use xlink:href="#path-1"></use>
                    </mask>
                    <g id="Clip-13"></g>
                    <polygon id="Fill-12" fill="#8A8583" mask="url(#mask-2)" points="151.044266 108.784694 155.144609 108.784694 155.144609 84.8232742 151.044266 84.8232742"></polygon>
                    <polygon id="Fill-14" fill="#8A8583" mask="url(#mask-2)" points="162.049842 84.8232742 179.351202 84.8232742 179.351202 88.5888548 166.150186 88.5888548 166.150186 94.8197258 177.849983 94.8197258 177.849983 98.5853065 166.150186 98.5853065 166.150186 105.022871 179.519248 105.022871 179.519248 108.784694 162.049842 108.784694"></polygon>
                    <path d="M195.166653,96.7010129 C198.098137,96.7010129 199.965325,95.1263839 199.965325,92.6986742 L199.965325,92.627271 C199.965325,90.0605129 198.165356,88.6549968 195.129309,88.6549968 L189.165513,88.6549968 L189.165513,96.7010129 L195.166653,96.7010129 Z M185.065169,84.821771 L195.465403,84.821771 C198.396887,84.821771 200.697262,85.7124323 202.198481,87.2194161 C203.430825,88.5197065 204.129153,90.301029 204.129153,92.3905129 L204.129153,92.4581581 C204.129153,96.3928516 201.832513,98.7566742 198.564934,99.7149806 L204.864825,108.786948 L200.032544,108.786948 L194.300278,100.432771 L194.233059,100.432771 L189.165513,100.432771 L189.165513,108.786948 L185.065169,108.786948 L185.065169,84.821771 Z" id="Fill-15" fill="#8A8583" mask="url(#mask-2)"></path>
                    <path d="M40.2961469,126.286752 L40.2961469,126.256687 C40.2961469,124.89251 39.4185688,123.990574 38.3542719,123.990574 C37.2937094,123.990574 36.4011938,124.877477 36.4011938,126.256687 L36.4011938,126.286752 C36.4011938,127.650929 37.2937094,128.552865 38.3542719,128.552865 C39.4185688,128.552865 40.2961469,127.650929 40.2961469,126.286752 M34.1306938,126.286752 L34.1306938,126.256687 C34.1306938,123.517058 35.8746469,122.013832 37.7717094,122.013832 C38.9816469,122.013832 39.7322563,122.5813 40.2662719,123.238961 L40.2662719,119.199042 L42.5367719,119.199042 L42.5367719,130.375526 L40.2662719,130.375526 L40.2662719,129.195494 C39.7135844,129.962139 38.9555063,130.525848 37.7717094,130.525848 C35.9082563,130.525848 34.1306938,129.026381 34.1306938,126.286752" id="Fill-16" fill="#4D4D4D" mask="url(#mask-2)"></path>
                    <path d="M49.8251516,125.627963 C49.6907141,124.586979 49.0969484,123.884221 48.1409484,123.884221 C47.1998859,123.884221 46.5874484,124.571947 46.4081984,125.627963 L49.8251516,125.627963 Z M44.1825109,126.319447 L44.1825109,126.285624 C44.1825109,123.94435 45.8106984,122.016463 48.1409484,122.016463 C50.8110266,122.016463 52.0359016,124.143527 52.0359016,126.469769 C52.0359016,126.653915 52.0209641,126.868124 52.0060266,127.082334 L46.4380734,127.082334 C46.6584016,128.13835 47.3791359,128.690785 48.3911516,128.690785 C49.1529641,128.690785 49.7056516,128.446511 50.3330266,127.848979 L51.6288547,129.029011 C50.8857141,129.976044 49.8102141,130.558544 48.3612766,130.558544 C45.9600734,130.558544 44.1825109,128.829834 44.1825109,126.319447 L44.1825109,126.319447 Z" id="Fill-17" fill="#4D4D4D" mask="url(#mask-2)"></path>
                    <path d="M53.0964641,129.288694 L54.0674016,127.755403 C54.9337766,128.40179 55.8412297,128.736258 56.5918391,128.736258 C57.2453547,128.736258 57.5441047,128.491984 57.5441047,128.123694 L57.5441047,128.093629 C57.5441047,127.58629 56.7673547,127.420935 55.8897766,127.142839 C54.7694641,126.808371 53.4997766,126.270968 53.4997766,124.677548 L53.4997766,124.647484 C53.4997766,122.978903 54.8142766,122.046903 56.4275266,122.046903 C57.4395422,122.046903 58.5449172,122.400161 59.4112922,122.993935 L58.5449172,124.602387 C57.7532297,124.128871 56.9615422,123.835742 56.3827141,123.835742 C55.8262922,123.835742 55.5462141,124.083774 55.5462141,124.40321 L55.5462141,124.433274 C55.5462141,124.895516 56.3042922,125.109726 57.1744016,125.414129 C58.2947141,125.797452 59.5905422,126.349887 59.5905422,127.849355 L59.5905422,127.879419 C59.5905422,129.702081 58.2648391,130.528855 56.5320891,130.528855 C55.4117766,130.528855 54.1570266,130.145532 53.0964641,129.288694" id="Fill-18" fill="#4D4D4D" mask="url(#mask-2)"></path>
                    <polygon id="Fill-19" fill="#4D4D4D" mask="url(#mask-2)" points="65.9113453 119.539523 72.0021109 119.539523 78.7501266 130.6897 85.5056109 119.539523 91.5963766 119.539523 91.5963766 145.913619 85.9836109 145.913619 85.9836109 128.694168 78.7501266 139.960845 78.6044859 139.960845 71.4494234 128.80691 71.4494234 145.913619 65.9113453 145.913619"></polygon>
                    <path d="M107.780784,110.799392 L112.586925,112.945247 L107.889081,117.466198 L103.635628,117.466198 L107.780784,110.799392 Z M97.0295188,119.54065 L116.407191,119.54065 L116.407191,124.700473 L102.642284,124.700473 L102.642284,130.051956 L114.752863,130.051956 L114.752863,135.211779 L102.642284,135.211779 L102.642284,140.751166 L116.586441,140.751166 L116.586441,145.910989 L97.0295188,145.910989 L97.0295188,119.54065 Z" id="Fill-20" fill="#4D4D4D" mask="url(#mask-2)"></path>
                    <path d="M130.898433,140.674877 C135.521589,140.674877 138.639792,137.473006 138.639792,132.801732 L138.639792,132.726571 C138.639792,128.055297 135.521589,124.778265 130.898433,124.778265 L126.532948,124.778265 L126.532948,140.674877 L130.898433,140.674877 Z M120.879105,119.539523 L130.898433,119.539523 C138.972152,119.539523 144.547573,125.229232 144.547573,132.65141 L144.547573,132.726571 C144.547573,140.148748 138.972152,145.913619 130.898433,145.913619 L120.879105,145.913619 L120.879105,119.539523 Z" id="Fill-21" fill="#4D4D4D" mask="url(#mask-2)"></path>
                    <polygon id="Fill-22" fill="#4D4D4D" mask="url(#mask-2)" points="148.366719 145.914371 154.020563 145.914371 154.020563 119.540274 148.366719 119.540274"></polygon>
                    <path d="M174.459917,134.872426 L171.046698,126.322829 L167.63348,134.872426 L174.459917,134.872426 Z M168.514792,119.351619 L173.724245,119.351619 L184.733183,145.913619 L178.825402,145.913619 L176.47648,139.998426 L165.616917,139.998426 L163.267995,145.913619 L157.505855,145.913619 L168.514792,119.351619 Z" id="Fill-23" fill="#4D4D4D" mask="url(#mask-2)"></path>
                    <path d="M186.202659,142.069495 L189.541191,137.961931 C191.852769,139.92364 194.272644,141.163802 197.207863,141.163802 C199.519441,141.163802 200.916097,140.224285 200.916097,138.679721 L200.916097,138.60456 C200.916097,137.135156 200.034784,136.379785 195.743988,135.252366 C190.568144,133.895705 187.225878,132.426302 187.225878,127.18756 L187.225878,127.112398 C187.225878,122.328382 190.971456,119.164092 196.221988,119.164092 C199.963831,119.164092 203.152988,120.370431 205.759581,122.516285 L202.824363,126.886915 C200.550128,125.267189 198.309503,124.286334 196.143566,124.286334 C193.981362,124.286334 192.842378,125.304769 192.842378,126.582511 L192.842378,126.661431 C192.842378,128.393898 193.944019,128.957608 198.384191,130.126366 C203.593644,131.520608 206.528863,133.440979 206.528863,138.037092 L206.528863,138.112253 C206.528863,143.350995 202.641378,146.289802 197.099566,146.289802 C193.208347,146.289802 189.283519,144.89556 186.202659,142.069495" id="Fill-24" fill="#4D4D4D" mask="url(#mask-2)"></path>
                    <path d="M120.614338,221.64576 C120.614338,219.54876 122.306009,217.850115 124.386056,217.850115 C126.469837,217.850115 128.161509,219.54876 128.161509,221.64576 C128.161509,223.74276 126.469837,225.445163 124.386056,225.445163 C122.306009,225.445163 120.614338,223.74276 120.614338,221.64576" id="Fill-25" fill="#84CBD5" mask="url(#mask-2)"></path>
                    <path d="M228.152388,101.734565 C228.152388,99.6338065 229.844059,97.9389194 231.924106,97.9389194 C234.007888,97.9389194 235.699559,99.6338065 235.699559,101.734565 C235.699559,103.831565 234.007888,105.526452 231.924106,105.526452 C229.844059,105.526452 228.152388,103.831565 228.152388,101.734565" id="Fill-26" fill="#EF8A4A" mask="url(#mask-2)"></path>
                    <path d="M90.4947359,28.2208097 C90.4947359,26.1238097 92.1826734,24.4251645 94.2739234,24.4251645 C96.3502359,24.4251645 98.0419078,26.1238097 98.0419078,28.2208097 C98.0419078,30.3178097 96.3502359,32.0202129 94.2739234,32.0202129 C92.1826734,32.0202129 90.4947359,30.3178097 90.4947359,28.2208097" id="Fill-27" fill="#CBD301" mask="url(#mask-2)"></path>
                    <path d="M15.1985328,177.692189 C15.1985328,176.222785 16.3860641,175.031479 17.8462047,175.031479 C19.3100797,175.031479 20.4938766,176.222785 20.4938766,177.692189 C20.4938766,179.161592 19.3100797,180.352898 17.8462047,180.352898 C16.3860641,180.352898 15.1985328,179.161592 15.1985328,177.692189" id="Fill-28" fill="#EF8A4A" mask="url(#mask-2)"></path>
                    <path d="M23.6882609,47.0644968 C23.6882609,45.5950935 24.8757922,44.4037871 26.3359328,44.4037871 C27.7998078,44.4037871 28.9836047,45.5950935 28.9836047,47.0644968 C28.9836047,48.5339 27.7998078,49.7252065 26.3359328,49.7252065 C24.8757922,49.7252065 23.6882609,48.5339 23.6882609,47.0644968" id="Fill-29" fill="#EF8A4A" mask="url(#mask-2)"></path>
                    <path d="M144.515831,205.323358 C144.515831,203.850197 145.699628,202.65889 147.163503,202.65889 C148.623644,202.65889 149.807441,203.850197 149.807441,205.323358 C149.807441,206.792761 148.623644,207.987826 147.163503,207.987826 C145.699628,207.987826 144.515831,206.792761 144.515831,205.323358" id="Fill-30" fill="#EF8A4A" mask="url(#mask-2)"></path>
                    <path d="M133.053541,3.49424839 C133.053541,2.02484516 134.237338,0.83353871 135.701213,0.83353871 C137.161353,0.83353871 138.348884,2.02484516 138.348884,3.49424839 C138.348884,4.96365161 137.161353,6.15871613 135.701213,6.15871613 C134.237338,6.15871613 133.053541,4.96365161 133.053541,3.49424839" id="Fill-31" fill="#EF8A4A" mask="url(#mask-2)"></path>
                    <path d="M219.786641,122.998445 C219.786641,121.529042 220.970438,120.337735 222.430578,120.337735 C223.894453,120.337735 225.07825,121.529042 225.07825,122.998445 C225.07825,124.471606 223.894453,125.659155 222.430578,125.659155 C220.970438,125.659155 219.786641,124.471606 219.786641,122.998445" id="Fill-32" fill="#84CBD5" mask="url(#mask-2)"></path>
                    <path d="M28.2576422,197.310037 C28.2576422,195.840634 29.4414391,194.649327 30.9015797,194.649327 C32.3654547,194.649327 33.5492516,195.840634 33.5492516,197.310037 C33.5492516,198.783198 32.3654547,199.970747 30.9015797,199.970747 C29.4414391,199.970747 28.2576422,198.783198 28.2576422,197.310037" id="Fill-33" fill="#CBD301" mask="url(#mask-2)"></path>
                    <path d="M27.1309813,71.7561081 C27.1309813,69.6515919 28.8226531,67.9567048 30.9064344,67.9567048 C32.9864812,67.9567048 34.6781531,69.6515919 34.6781531,71.7561081 C34.6781531,73.8531081 32.9864812,75.5517532 30.9064344,75.5517532 C28.8226531,75.5517532 27.1309813,73.8531081 27.1309813,71.7561081" id="Fill-34" fill="#84CBD5" mask="url(#mask-2)"></path>
                    <path d="M85.1997656,6.15871613 C85.1997656,4.68555484 86.3835625,3.49800645 87.8474375,3.49800645 C89.3075781,3.49800645 90.491375,4.68555484 90.491375,6.15871613 C90.491375,7.63187742 89.3075781,8.81942581 87.8474375,8.81942581 C86.3835625,8.81942581 85.1997656,7.63187742 85.1997656,6.15871613" id="Fill-35" fill="#84CBD5" mask="url(#mask-2)"></path>
                    <path d="M86.7204031,59.6010242 C86.7204031,57.5040242 88.412075,55.801621 90.4958563,55.801621 C92.5759031,55.801621 94.267575,57.5040242 94.267575,59.6010242 C94.267575,61.6980242 92.5759031,63.3966694 90.4958563,63.3966694 C88.412075,63.3966694 86.7204031,61.6980242 86.7204031,59.6010242" id="Fill-36" fill="#CBD301" mask="url(#mask-2)"></path>
                    <path d="M-0.0018671875,125.301387 C-0.0018671875,123.200629 1.68980469,121.5095 3.77732031,121.5095 C5.85363281,121.5095 7.54530469,123.200629 7.54530469,125.301387 C7.54530469,127.398387 5.85363281,129.093274 3.77732031,129.093274 C1.68980469,129.093274 -0.0018671875,127.398387 -0.0018671875,125.301387" id="Fill-37" fill="#CBD301" mask="url(#mask-2)"></path>
                    <path d="M225.505089,149.110229 C225.505089,147.013229 227.196761,145.314584 229.280542,145.314584 C231.360589,145.314584 233.052261,147.013229 233.052261,149.110229 C233.052261,151.207229 231.360589,152.909632 229.280542,152.909632 C227.196761,152.909632 225.505089,151.207229 225.505089,149.110229" id="Fill-38" fill="#CBD301" mask="url(#mask-2)"></path>
                    <path d="M217.146437,60.9903806 C217.146437,59.5209774 218.3265,58.3259129 219.794109,58.3259129 C221.25425,58.3259129 222.438047,59.5209774 222.438047,60.9903806 C222.438047,62.4635419 221.25425,63.6548484 219.794109,63.6548484 C218.3265,63.6548484 217.146437,62.4635419 217.146437,60.9903806" id="Fill-39" fill="#8A8583" mask="url(#mask-2)"></path>
                    <path d="M114.578841,43.2677242 C114.578841,41.1707242 116.266778,39.472079 118.354294,39.472079 C120.438075,39.472079 122.126013,41.1707242 122.126013,43.2677242 C122.126013,45.3647242 120.438075,47.0633694 118.354294,47.0633694 C116.266778,47.0633694 114.578841,45.3647242 114.578841,43.2677242" id="Fill-40" fill="#4D4D4D" mask="url(#mask-2)"></path>
                    <path d="M4.89613906,85.6635774 C4.89613906,84.1941742 6.07993594,82.9991097 7.54381094,82.9991097 C9.00395156,82.9991097 10.1914828,84.1941742 10.1914828,85.6635774 C10.1914828,87.1367387 9.00395156,88.3242871 7.54381094,88.3242871 C6.07993594,88.3242871 4.89613906,87.1367387 4.89613906,85.6635774" id="Fill-41" fill="#8A8583" mask="url(#mask-2)"></path>
                    <path d="M90.491375,225.445915 C90.491375,223.348915 92.1867812,221.646511 94.2705625,221.646511 C96.3580781,221.646511 98.0422812,223.348915 98.0422812,225.445915 C98.0422812,227.542915 96.3580781,229.24156 94.2705625,229.24156 C92.1867812,229.24156 90.491375,227.542915 90.491375,225.445915" id="Fill-42" fill="#EF8A4A" mask="url(#mask-2)"></path>
                    <path d="M191.61825,199.851616 C191.61825,197.754616 193.306187,196.055971 195.386234,196.055971 C197.470016,196.055971 199.165422,197.754616 199.165422,199.851616 C199.165422,201.948616 197.470016,203.651019 195.386234,203.651019 C193.306187,203.651019 191.61825,201.948616 191.61825,199.851616" id="Fill-43" fill="#4D4D4D" mask="url(#mask-2)"></path>
                    <path d="M162.837422,54.3769387 C158.457,54.3769387 154.901875,50.7992613 154.901875,46.3910516 C154.901875,41.9828419 158.457,38.4014065 162.837422,38.4014065 C167.221578,38.4014065 170.780438,41.9828419 170.780438,46.3910516 C170.780438,50.7992613 167.221578,54.3769387 162.837422,54.3769387" id="Fill-44" fill="#CBD301" mask="url(#mask-2)"></path>
                    <path d="M60.9954141,71.2991274 C56.6000547,71.2991274 53.0523984,67.7176919 53.0523984,63.3094823 C53.0523984,58.8937565 56.6000547,55.312321 60.9954141,55.312321 C65.3795703,55.312321 68.9309609,58.8937565 68.9309609,63.3094823 C68.9309609,67.7176919 65.3795703,71.2991274 60.9954141,71.2991274" id="Fill-45" fill="#EF8A4A" mask="url(#mask-2)"></path>
                    <path d="M44.5847031,186.487187 C42.5009219,186.487187 40.80925,184.788542 40.80925,182.687784 C40.80925,180.594542 42.5009219,178.895897 44.5847031,178.895897 C46.6684844,178.895897 48.3601563,180.594542 48.3601563,182.687784 C48.3601563,184.788542 46.6684844,186.487187 44.5847031,186.487187" id="Fill-46" fill="#EF8A4A" mask="url(#mask-2)"></path>
                    <path d="M187.001442,181.626506 C184.917661,181.626506 183.229723,179.920345 183.229723,177.827103 C183.229723,175.730103 184.917661,174.031458 187.001442,174.031458 C189.085223,174.031458 190.776895,175.730103 190.776895,177.827103 C190.776895,179.920345 189.085223,181.626506 187.001442,181.626506" id="Fill-47" fill="#EF8A4A" mask="url(#mask-2)"></path>
                    <path d="M185.480805,72.9744726 C182.560523,72.9744726 180.189195,70.5881016 180.189195,67.6492952 C180.189195,64.7104887 182.560523,62.3241177 185.480805,62.3241177 C188.401086,62.3241177 190.776148,64.7104887 190.776148,67.6492952 C190.776148,70.5881016 188.401086,72.9744726 185.480805,72.9744726" id="Fill-48" fill="#EF8A4A" mask="url(#mask-2)"></path>
                    <path d="M129.282942,30.7680258 C127.199161,30.7680258 125.511223,29.0656226 125.511223,26.9723806 C125.511223,24.8753806 127.199161,23.1729774 129.282942,23.1729774 C131.370458,23.1729774 133.054661,24.8753806 133.054661,26.9723806 C133.054661,29.0656226 131.370458,30.7680258 129.282942,30.7680258" id="Fill-49" fill="#84CBD5" mask="url(#mask-2)"></path>
                    <path d="M63.6393516,224.310227 C62.1717422,224.310227 60.9916797,223.115163 60.9916797,221.649518 C60.9916797,220.176356 62.1717422,218.98505 63.6393516,218.98505 C65.1032266,218.98505 66.2870234,220.176356 66.2870234,221.649518 C66.2870234,223.115163 65.1032266,224.310227 63.6393516,224.310227" id="Fill-50" fill="#84CBD5" mask="url(#mask-2)"></path>
                    <path d="M155.624103,190.827 C152.703822,190.827 150.332494,188.433113 150.332494,185.498065 C150.332494,182.5555 152.703822,180.169129 155.624103,180.169129 C158.544384,180.169129 160.915713,182.5555 160.915713,185.498065 C160.915713,188.433113 158.544384,190.827 155.624103,190.827" id="Fill-51" fill="#EF8A4A" mask="url(#mask-2)"></path>
                    <path d="M26.3359328,145.473174 C24.2521516,145.473174 22.5642141,143.770771 22.5642141,141.673771 C22.5642141,139.580529 24.2521516,137.878126 26.3359328,137.878126 C28.4234484,137.878126 30.1076516,139.580529 30.1076516,141.673771 C30.1076516,143.770771 28.4234484,145.473174 26.3359328,145.473174" id="Fill-52" fill="#84CBD5" mask="url(#mask-2)"></path>
                    <path d="M123.644783,183.15679 C120.724502,183.15679 118.349439,180.770419 118.349439,177.827855 C118.349439,174.889048 120.724502,172.498919 123.644783,172.498919 C126.565064,172.498919 128.936392,174.889048 128.936392,177.827855 C128.936392,180.770419 126.565064,183.15679 123.644783,183.15679" id="Fill-53" fill="#4D4D4D" mask="url(#mask-2)"></path>
                    <path d="M170.780438,224.31361 C169.316563,224.31361 168.132766,223.118545 168.132766,221.645384 C168.132766,220.175981 169.316563,218.984674 170.780438,218.984674 C172.244313,218.984674 173.428109,220.175981 173.428109,221.645384 C173.428109,223.118545 172.244313,224.31361 170.780438,224.31361" id="Fill-54" fill="#CBD301" mask="url(#mask-2)"></path>
                    <path d="M194.262561,33.8597855 C192.80242,33.8597855 191.618623,32.664721 191.618623,31.1953177 C191.618623,29.7221565 192.80242,28.5346081 194.262561,28.5346081 C195.726436,28.5346081 196.910233,29.7221565 196.910233,31.1953177 C196.910233,32.664721 195.726436,33.8597855 194.262561,33.8597855" id="Fill-55" fill="#CBD301" mask="url(#mask-2)"></path>
                    <path d="M152.976431,22.7434306 C151.516291,22.7434306 150.332494,21.5521242 150.332494,20.0789629 C150.332494,18.6095597 151.516291,17.4182532 152.976431,17.4182532 C154.440306,17.4182532 155.624103,18.6095597 155.624103,20.0789629 C155.624103,21.5521242 154.440306,22.7434306 152.976431,22.7434306" id="Fill-56" fill="#CBD301" mask="url(#mask-2)"></path>
                    <path d="M66.2870234,38.9098726 C64.2032422,38.9098726 62.5115703,37.2149855 62.5115703,35.1142274 C62.5115703,33.0209855 64.2032422,31.3223403 66.2870234,31.3223403 C68.3708047,31.3223403 70.0587422,33.0209855 70.0587422,35.1142274 C70.0587422,37.2149855 68.3708047,38.9098726 66.2870234,38.9098726" id="Fill-57" fill="#4D4D4D" mask="url(#mask-2)"></path>
                    <path d="M133.053541,68.0367516 C130.133259,68.0367516 127.761931,65.6503806 127.761931,62.7078161 C127.761931,59.7614935 130.133259,57.3826387 133.053541,57.3826387 C135.977556,57.3826387 138.348884,59.7614935 138.348884,62.7078161 C138.348884,65.6503806 135.977556,68.0367516 133.053541,68.0367516" id="Fill-58" fill="#8A8583" mask="url(#mask-2)"></path>
                    <path d="M78.4383062,208.716515 C76.354525,208.716515 74.6628531,207.017869 74.6628531,204.920869 C74.6628531,202.823869 76.354525,201.125224 78.4383062,201.125224 C80.5220875,201.125224 82.2137594,202.823869 82.2137594,204.920869 C82.2137594,207.017869 80.5220875,208.716515 78.4383062,208.716515" id="Fill-59" fill="#8A8583" mask="url(#mask-2)"></path>
                    <path d="M103.018336,199.726848 C98.6379141,199.726848 95.0753203,196.149171 95.0753203,191.737203 C95.0753203,187.328994 98.6379141,183.7438 103.018336,183.7438 C107.406227,183.7438 110.957617,187.328994 110.957617,191.737203 C110.957617,196.149171 107.406227,199.726848 103.018336,199.726848" id="Fill-60" fill="#84CBD5" mask="url(#mask-2)"></path>
                    <path d="M219.794109,180.167626 C218.330234,180.167626 217.146437,178.972561 217.146437,177.506916 C217.146437,176.029997 218.330234,174.842448 219.794109,174.842448 C221.25425,174.842448 222.438047,176.029997 222.438047,177.506916 C222.438047,178.972561 221.25425,180.167626 219.794109,180.167626" id="Fill-61" fill="#84CBD5" mask="url(#mask-2)"></path>
                    <path d="M200.753652,53.021029 C198.66987,53.021029 196.978198,51.3223839 196.978198,49.2291419 C196.978198,47.1321419 198.66987,45.4297387 200.753652,45.4259806 C202.837433,45.4259806 204.529105,47.1321419 204.529105,49.2291419 C204.529105,51.3223839 202.837433,53.021029 200.753652,53.021029" id="Fill-62" fill="#4D4D4D" mask="url(#mask-2)"></path>
                    <path d="M67.8517266,183.019245 C67.8517266,180.080439 70.2305234,177.694068 73.1470703,177.694068 C76.0710859,177.694068 78.4386797,180.080439 78.4386797,183.019245 C78.4386797,185.958052 76.0710859,188.344423 73.1470703,188.344423 C70.2305234,188.344423 67.8517266,185.958052 67.8517266,183.019245" id="Fill-63" fill="#CBD301" mask="url(#mask-2)"></path>
                    <path d="M34.7453719,160.874474 L34.7453719,160.848168 C34.7453719,158.409184 36.5304031,156.409894 39.0660437,156.409894 C40.6083406,156.409894 41.5419344,156.958571 42.344825,157.744006 L41.4000281,158.860152 C40.731575,158.221281 40.0108406,157.792861 39.0548406,157.792861 C37.4527937,157.792861 36.2914031,159.145765 36.2914031,160.825619 L36.2914031,160.848168 C36.2914031,162.531781 37.4527937,163.907232 39.0548406,163.907232 C40.0855281,163.907232 40.7390438,163.475055 41.4597781,162.787329 L42.404575,163.771942 C41.5307313,164.703942 40.5747312,165.2902 39.0062937,165.2902 C36.5640125,165.2902 34.7453719,163.339765 34.7453719,160.874474" id="Fill-64" fill="#8A8583" mask="url(#mask-2)"></path>
                    <path d="M51.2584047,160.874474 L51.2584047,160.848168 C51.2584047,159.179587 50.0746078,157.792861 48.4090766,157.792861 C46.7472797,157.792861 45.5858891,159.157039 45.5858891,160.825619 L45.5858891,160.848168 C45.5858891,162.516748 46.7696859,163.907232 48.4352172,163.907232 C50.0970141,163.907232 51.2584047,162.543055 51.2584047,160.874474 M44.0398578,160.874474 L44.0398578,160.848168 C44.0398578,158.431732 45.8622328,156.409894 48.4352172,156.409894 C51.0082016,156.409894 52.8007016,158.409184 52.8007016,160.825619 L52.8007016,160.848168 C52.8007016,163.268361 50.9820609,165.2902 48.4090766,165.2902 C45.8398266,165.2902 44.0398578,163.29091 44.0398578,160.874474" id="Fill-65" fill="#8A8583" mask="url(#mask-2)"></path>
                    <polygon id="Fill-66" fill="#8A8583" mask="url(#mask-2)" points="54.1831672 156.554955 55.7777453 156.554955 57.7756359 162.924874 59.8332766 156.528648 61.0768234 156.528648 63.1344641 162.924874 65.1360891 156.554955 66.6783859 156.554955 63.7543703 165.206019 62.4921516 165.206019 60.4307766 159.035277 58.3731359 165.206019 57.1034484 165.206019"></polygon>
                    <path d="M75.2693156,160.874474 L75.2693156,160.848168 C75.2693156,159.179587 74.0892531,157.792861 72.4199875,157.792861 C70.7581906,157.792861 69.5968,159.157039 69.5968,160.825619 L69.5968,160.848168 C69.5968,162.516748 70.7843312,163.907232 72.4461281,163.907232 C74.107925,163.907232 75.2693156,162.543055 75.2693156,160.874474 M68.0545031,160.874474 L68.0545031,160.848168 C68.0545031,158.431732 69.8768781,156.409894 72.4461281,156.409894 C75.0228469,156.409894 76.8153469,158.409184 76.8153469,160.825619 L76.8153469,160.848168 C76.8153469,163.268361 74.9967062,165.2902 72.4199875,165.2902 C69.8507375,165.2902 68.0545031,163.29091 68.0545031,160.874474" id="Fill-67" fill="#8A8583" mask="url(#mask-2)"></path>
                    <path d="M82.9240375,160.81209 C83.9771312,160.81209 84.6493187,160.248381 84.6493187,159.37651 L84.6493187,159.350203 C84.6493187,158.433235 84.0032719,157.929655 82.9128344,157.929655 L80.7730375,157.929655 L80.7730375,160.81209 L82.9240375,160.81209 Z M79.2979594,156.554203 L83.0323344,156.554203 C84.0891625,156.554203 84.910725,156.873639 85.4522094,157.4148 C85.8928656,157.8808 86.1430687,158.519671 86.1430687,159.267526 L86.1430687,159.290074 C86.1430687,160.703106 85.3215062,161.548671 84.1451781,161.894413 L86.4082094,165.145139 L84.671725,165.145139 L82.6140844,162.149961 L82.5879438,162.149961 L80.7730375,162.149961 L80.7730375,165.145139 L79.2979594,165.145139 L79.2979594,156.554203 Z" id="Fill-68" fill="#8A8583" mask="url(#mask-2)"></path>
                    <polygon id="Fill-69" fill="#8A8583" mask="url(#mask-2)" points="88.65705 156.554955 90.1283937 156.554955 90.1283937 160.872971 94.1129719 156.554955 95.916675 156.554955 92.4362375 160.249132 96.0735188 165.14589 94.2922219 165.14589 91.4316906 161.278842 90.1283937 162.654294 90.1283937 165.14589 88.65705 165.14589"></polygon>
                    <polygon id="Fill-70" fill="#8A8583" mask="url(#mask-2)" points="98.1169687 165.144387 99.5920469 165.144387 99.5920469 156.553452 98.1169687 156.553452"></polygon>
                    <polygon id="Fill-71" fill="#8A8583" mask="url(#mask-2)" points="102.540336 156.554955 103.903383 156.554955 108.388367 162.492697 108.388367 156.554955 109.837305 156.554955 109.837305 165.14589 108.604961 165.14589 103.989273 159.035277 103.989273 165.14589 102.540336 165.14589"></polygon>
                    <path d="M112.321411,160.874474 L112.321411,160.848168 C112.321411,158.446765 114.117645,156.409894 116.642083,156.409894 C118.102223,156.409894 118.998473,156.823281 119.864848,157.574894 L118.931255,158.713587 C118.281473,158.149877 117.64663,157.792861 116.582333,157.792861 C115.040036,157.792861 113.867442,159.179587 113.867442,160.825619 L113.867442,160.848168 C113.867442,162.614458 115.002692,163.918506 116.71677,163.918506 C117.504723,163.918506 118.221723,163.6592 118.737067,163.268361 L118.737067,161.65991 L116.59727,161.65991 L116.59727,160.344587 L120.163598,160.344587 L120.163598,163.952329 C119.334567,164.677635 118.15077,165.2902 116.664489,165.2902 C114.046692,165.2902 112.321411,163.377345 112.321411,160.874474" id="Fill-72" fill="#8A8583" mask="url(#mask-2)"></path>
                    <path d="M132.152809,161.733192 L130.703872,158.294563 L129.269872,161.733192 L132.152809,161.733192 Z M130.046622,156.490692 L131.409669,156.490692 L135.095497,165.145515 L133.538263,165.145515 L132.690559,163.071063 L128.728387,163.071063 L127.869481,165.145515 L126.360794,165.145515 L130.046622,156.490692 Z" id="Fill-73" fill="#8A8583" mask="url(#mask-2)"></path>
                    <path d="M136.539953,163.892952 L137.425,162.810629 C138.227891,163.524661 139.030781,163.930532 140.068938,163.930532 C140.980125,163.930532 141.555219,163.502113 141.555219,162.84821 L141.555219,162.825661 C141.555219,162.213097 141.219125,161.878629 139.665625,161.514097 C137.880594,161.070645 136.876047,160.529484 136.876047,158.947339 L136.876047,158.921032 C136.876047,157.451629 138.071047,156.433194 139.732844,156.433194 C140.957719,156.433194 141.924922,156.812758 142.776359,157.511758 L141.984672,158.650452 C141.234062,158.075468 140.479719,157.771065 139.714172,157.771065 C138.851531,157.771065 138.347391,158.222032 138.347391,158.7895 L138.347391,158.812048 C138.347391,159.473468 138.732031,159.770355 140.334078,160.161194 C142.104172,160.604645 143.026563,161.25479 143.026563,162.679097 L143.026563,162.701645 C143.026563,164.310097 141.794219,165.268403 140.035328,165.268403 C138.754438,165.268403 137.548234,164.813677 136.539953,163.892952" id="Fill-74" fill="#8A8583" mask="url(#mask-2)"></path>
                    <path d="M144.785453,163.892952 L145.6705,162.810629 C146.469656,163.524661 147.272547,163.930532 148.314437,163.930532 C149.221891,163.930532 149.800719,163.502113 149.800719,162.84821 L149.800719,162.825661 C149.800719,162.213097 149.464625,161.878629 147.907391,161.514097 C146.122359,161.070645 145.121547,160.529484 145.121547,158.947339 L145.121547,158.921032 C145.121547,157.451629 146.316547,156.433194 147.978344,156.433194 C149.203219,156.433194 150.166687,156.812758 151.018125,157.511758 L150.230172,158.650452 C149.475828,158.075468 148.721484,157.771065 147.955937,157.771065 C147.093297,157.771065 146.589156,158.222032 146.589156,158.7895 L146.589156,158.812048 C146.589156,159.473468 146.973797,159.770355 148.579578,160.161194 C150.349672,160.604645 151.268328,161.25479 151.268328,162.679097 L151.268328,162.701645 C151.268328,164.310097 150.035984,165.268403 148.280828,165.268403 C146.999938,165.268403 145.79,164.813677 144.785453,163.892952" id="Fill-75" fill="#8A8583" mask="url(#mask-2)"></path>
                    <path d="M160.554598,160.874474 L160.554598,160.848168 C160.554598,159.179587 159.374536,157.792861 157.70527,157.792861 C156.043473,157.792861 154.882083,159.157039 154.882083,160.825619 L154.882083,160.848168 C154.882083,162.516748 156.069614,163.907232 157.731411,163.907232 C159.393208,163.907232 160.554598,162.543055 160.554598,160.874474 M153.339786,160.874474 L153.339786,160.848168 C153.339786,158.431732 155.162161,156.409894 157.731411,156.409894 C160.30813,156.409894 162.10063,158.409184 162.10063,160.825619 L162.10063,160.848168 C162.10063,163.268361 160.281989,165.2902 157.70527,165.2902 C155.13602,165.2902 153.339786,163.29091 153.339786,160.874474" id="Fill-76" fill="#8A8583" mask="url(#mask-2)"></path>
                    <path d="M164.212419,160.874474 L164.212419,160.848168 C164.212419,158.409184 165.99745,156.409894 168.533091,156.409894 C170.075388,156.409894 171.008981,156.958571 171.811872,157.744006 L170.867075,158.860152 C170.198622,158.221281 169.477888,157.792861 168.521887,157.792861 C166.919841,157.792861 165.75845,159.145765 165.75845,160.825619 L165.75845,160.848168 C165.75845,162.531781 166.919841,163.907232 168.521887,163.907232 C169.552575,163.907232 170.206091,163.475055 170.926825,162.787329 L171.871622,163.771942 C170.997778,164.703942 170.041778,165.2902 168.473341,165.2902 C166.031059,165.2902 164.212419,163.339765 164.212419,160.874474" id="Fill-77" fill="#8A8583" mask="url(#mask-2)"></path>
                    <polygon id="Fill-78" fill="#8A8583" mask="url(#mask-2)" points="174.204859 165.144387 175.676203 165.144387 175.676203 156.553452 174.204859 156.553452"></polygon>
                    <path d="M183.697267,161.733192 L182.24833,158.294563 L180.81433,161.733192 L183.697267,161.733192 Z M181.59108,156.490692 L182.954127,156.490692 L186.639955,165.145515 L185.08272,165.145515 L184.235017,163.071063 L180.272845,163.071063 L179.413939,165.145515 L177.905252,165.145515 L181.59108,156.490692 Z" id="Fill-79" fill="#8A8583" mask="url(#mask-2)"></path>
                    <polygon id="Fill-80" fill="#8A8583" mask="url(#mask-2)" points="189.758531 157.952955 187.103391 157.952955 187.103391 156.554955 193.899953 156.554955 193.899953 157.952955 191.241078 157.952955 191.241078 165.14589 189.758531 165.14589"></polygon>
                    <polygon id="Fill-81" fill="#8A8583" mask="url(#mask-2)" points="196.245141 165.144387 197.720219 165.144387 197.720219 156.553452 196.245141 156.553452"></polygon>
                    <polygon id="Fill-82" fill="#8A8583" mask="url(#mask-2)" points="200.666267 156.554955 206.902673 156.554955 206.902673 157.930406 202.141345 157.930406 202.141345 160.271681 206.361189 160.271681 206.361189 161.647132 202.141345 161.647132 202.141345 165.14589 200.666267 165.14589"></polygon>
                </g>
            </g>
        </g>
    </g>
</svg>