
<svg width="236px" height="236px" viewBox="0 0 236 236" version="1.1" xmlns="http://www.w3.org/2000/svg" xmlns:xlink="http://www.w3.org/1999/xlink">
    <!-- Generator: Sketch 47 (45396) - http://www.bohemiancoding.com/sketch -->
    <desc>Created with Sketch.</desc>
    <defs>
        <polygon id="path-1" points="0 236.863864 235.930435 236.863864 235.930435 0.998965217 0 0.998965217"></polygon>
    </defs>
    <g id="Symbols" stroke="none" stroke-width="1" fill="none" fill-rule="evenodd">
        <g id="Logos/MACIF">
            <g id="Group-2" transform="translate(0.000000, -1.000000)">
                <g id="Group">
                    <g id="Page-1">
                        <path d="M235.930435,16.5583014 L235.930435,221.34178 C197.474464,231.682707 157.821594,236.901461 117.99971,236.863519 C78.1536812,236.911809 38.4766667,231.693055 0,221.34178 L0,16.5583014 C77.2741159,-4.18564058 158.656319,-4.18564058 235.930435,16.5583014" id="Fill-1" fill="#0A2D82"></path>
                        <path d="M142.420925,84.9577768 C142.420925,98.0270812 131.8282,108.619806 118.758896,108.619806 C105.689591,108.619806 95.0968667,98.0270812 95.0968667,84.9577768 C95.0968667,71.9298638 105.627504,61.3509362 118.655417,61.2957478 C131.728171,61.3164435 142.317446,71.9195159 142.317446,84.9922696" id="Fill-3" fill="#D3D62E"></path>
                        <path d="M171.532809,84.9577768 L157.011359,84.9577768 C155.748925,85.1578348 154.727939,86.0960377 154.424403,87.3377768 C153.15162,107.050386 136.139794,121.999545 116.427186,120.730212 C96.7145768,119.457429 81.7619681,102.445603 83.0347507,82.7329942 C84.1730116,65.0727043 98.0563449,50.8996319 115.689041,49.3957478 C117.410229,49.3578058 118.779591,47.9436029 118.758896,46.2224145 L118.758896,32.7357478 C118.758896,31.0387043 117.382635,29.6658928 115.689041,29.6658928 C85.1215623,31.3663855 61.7251275,57.5222406 63.4256203,88.0897188 C65.1226638,118.657197 91.2819681,142.057081 121.845997,140.356588 C150.088664,138.78027 172.615881,116.201313 174.119765,87.9586464 C174.088722,86.4720087 172.998751,85.2268203 171.532809,84.9922696" id="Fill-5" fill="#D3D62E"></path>
                        <path d="M60.4654522,188.607812 L60.4654522,181.057348 C59.0960899,182.66471 57.6198,184.18929 56.0503797,185.606942 L50.3245826,191.194768 L49.6692203,191.194768 L44.0124087,185.606942 C42.4636841,184.192739 41.0080899,182.668159 39.6663217,181.057348 L39.6663217,188.607812 L39.6663217,202.749841 L29.7324087,202.749841 L29.7324087,159.599406 L31.0776261,159.599406 L42.287771,169.740275 C44.0469014,171.326942 47.7721188,174.948681 50.4280609,177.880565 C52.9115391,175.155638 56.8782058,171.361435 58.6373362,169.740275 L69.5025536,159.599406 L70.8132783,159.599406 L70.8132783,202.749841 L60.4654522,202.749841 L60.4654522,188.607812 Z" id="Fill-7" fill="#FFFFFF"></path>
                        <path d="M105.272229,197.126487 L87.6119391,197.126487 L84.8870116,202.786748 L73.5044029,202.786748 L95.4073014,159.632864 L97.6148377,159.632864 L119.517736,202.786748 L107.893678,202.786748 L105.272229,197.126487 Z M91.4751275,188.882719 L101.236577,188.882719 L100.719186,187.851386 C99.4429536,185.229936 97.9252725,181.918632 96.3730986,177.741559 C94.8209246,181.918632 93.3032435,185.229936 92.0270116,187.851386 L91.4751275,188.882719 Z" id="Fill-9" fill="#FFFFFF"></path>
                        <path d="M156.044872,198.474119 C152.023017,202.08551 146.790467,204.055046 141.385452,203.992959 C129.695858,204.36893 119.913713,195.197307 119.537742,183.504264 C119.520496,182.928235 119.523945,182.352206 119.551539,181.779626 C118.88238,170.217655 127.715974,160.300988 139.277945,159.62838 C139.819481,159.597336 140.361017,159.590438 140.902554,159.597336 C146.428293,159.497307 151.795365,161.466843 155.941394,165.119626 L150.146612,172.501075 C147.818351,170.269394 144.714003,169.034554 141.48893,169.0518 C134.59038,169.0518 130.416757,174.501655 130.416757,181.779626 C130.416757,189.057597 134.59038,194.538496 141.695887,194.538496 C144.927858,194.604032 148.049452,193.362293 150.353568,191.08922 L156.044872,198.474119 Z" id="Fill-11" fill="#FFFFFF"></path>
                        <mask id="mask-2" fill="white">
                            <use xlink:href="#path-1"></use>
                        </mask>
                        <g id="Clip-14"></g>
                        <polygon id="Fill-13" fill="#FFFFFF" mask="url(#mask-2)" points="161.184638 202.75053 171.670435 202.75053 171.670435 160.876328 161.184638 160.876328"></polygon>
                        <polygon id="Fill-15" fill="#FFFFFF" mask="url(#mask-2)" points="190.987067 170.327342 190.987067 180.157777 206.957212 180.157777 206.957212 189.022414 190.987067 189.022414 190.987067 202.747081 180.50127 202.747081 180.50127 160.876328 211.44127 160.876328 209.371704 170.327342"></polygon>
                    </g>
                </g>
            </g>
        </g>
    </g>
</svg>